<svg version="1.1" viewBox="0.0 0.0 839.6299212598425 450.21259842519686" fill="none" stroke="none" stroke-linecap="square" stroke-miterlimit="10" xmlns:xlink="http://www.w3.org/1999/xlink" xmlns="http://www.w3.org/2000/svg"><clipPath id="p.0"><path d="m0 0l839.62994 0l0 450.2126l-839.62994 0l0 -450.2126z" clip-rule="nonzero"/></clipPath><g clip-path="url(#p.0)"><path fill="#000000" fill-opacity="0.0" d="m0 0l839.62994 0l0 450.2126l-839.62994 0z" fill-rule="evenodd"/><path fill="#cfe2f3" d="m173.72232 116.107735l0 0c0 -3.4790268 2.8203125 -6.2993393 6.2993317 -6.2993393l100.787155 0c1.6706848 0 3.2729492 0.66368103 4.454315 1.8450394c1.1813354 1.1813507 1.8450317 2.783615 1.8450317 4.4543l0 25.196602c0 3.4790344 -2.8203125 6.2993317 -6.299347 6.2993317l-100.787155 0c-3.4790192 0 -6.2993317 -2.8202972 -6.2993317 -6.2993317z" fill-rule="evenodd"/><path stroke="#000000" stroke-width="1.0" stroke-linejoin="round" stroke-linecap="butt" d="m173.72232 116.107735l0 0c0 -3.4790268 2.8203125 -6.2993393 6.2993317 -6.2993393l100.787155 0c1.6706848 0 3.2729492 0.66368103 4.454315 1.8450394c1.1813354 1.1813507 1.8450317 2.783615 1.8450317 4.4543l0 25.196602c0 3.4790344 -2.8203125 6.2993317 -6.299347 6.2993317l-100.787155 0c-3.4790192 0 -6.2993317 -2.8202972 -6.2993317 -6.2993317z" fill-rule="evenodd"/><path fill="#000000" d="m215.24872 135.62604l0 -13.359375l1.8125 0l7.015625 10.484375l0 -10.484375l1.6875 0l0 13.359375l-1.8125 0l-7.015625 -10.5l0 10.5l-1.6875 0zm19.597946 -1.1875q-0.921875 0.765625 -1.765625 1.09375q-0.828125 0.3125 -1.796875 0.3125q-1.59375 0 -2.453125 -0.78125q-0.859375 -0.78125 -0.859375 -1.984375q0 -0.71875 0.328125 -1.296875q0.328125 -0.59375 0.84375 -0.9375q0.53125 -0.359375 1.1875 -0.546875q0.46875 -0.125 1.453125 -0.25q1.984375 -0.234375 2.921875 -0.5625q0.015625 -0.34375 0.015625 -0.421875q0 -1.0 -0.46875 -1.421875q-0.625 -0.546875 -1.875 -0.546875q-1.15625 0 -1.703125 0.40625q-0.546875 0.40625 -0.8125 1.421875l-1.609375 -0.21875q0.21875 -1.015625 0.71875 -1.640625q0.5 -0.640625 1.453125 -0.984375q0.953125 -0.34375 2.1875 -0.34375q1.25 0 2.015625 0.296875q0.78125 0.28125 1.140625 0.734375q0.375 0.4375 0.515625 1.109375q0.078125 0.421875 0.078125 1.515625l0 2.1875q0 2.28125 0.109375 2.890625q0.109375 0.59375 0.40625 1.15625l-1.703125 0q-0.265625 -0.515625 -0.328125 -1.1875zm-0.140625 -3.671875q-0.890625 0.375 -2.671875 0.625q-1.015625 0.140625 -1.4375 0.328125q-0.421875 0.1875 -0.65625 0.53125q-0.21875 0.34375 -0.21875 0.78125q0 0.65625 0.5 1.09375q0.5 0.4375 1.453125 0.4375q0.9375 0 1.671875 -0.40625q0.75 -0.421875 1.09375 -1.140625q0.265625 -0.5625 0.265625 -1.640625l0 -0.609375zm6.891342 4.859375l-3.6875 -9.671875l1.734375 0l2.078125 5.796875q0.328125 0.9375 0.625 1.9375q0.203125 -0.765625 0.609375 -1.828125l2.140625 -5.90625l1.6875 0l-3.65625 9.671875l-1.53125 0z" fill-rule="nonzero"/><path fill="#cfe2f3" d="m553.24426 161.09724l0 0c0 -3.4790344 2.8203125 -6.299347 6.2993164 -6.299347l100.78717 0c1.6706543 0 3.2729492 0.66368103 4.4542847 1.8450317c1.1813965 1.181366 1.8450317 2.783615 1.8450317 4.454315l0 25.196594c0 3.4790344 -2.8203125 6.2993317 -6.2993164 6.2993317l-100.78717 0c-3.479004 0 -6.2993164 -2.8202972 -6.2993164 -6.2993317z" fill-rule="evenodd"/><path stroke="#000000" stroke-width="1.0" stroke-linejoin="round" stroke-linecap="butt" d="m553.24426 161.09724l0 0c0 -3.4790344 2.8203125 -6.299347 6.2993164 -6.299347l100.78717 0c1.6706543 0 3.2729492 0.66368103 4.4542847 1.8450317c1.1813965 1.181366 1.8450317 2.783615 1.8450317 4.454315l0 25.196594c0 3.4790344 -2.8203125 6.2993317 -6.2993164 6.2993317l-100.78717 0c-3.479004 0 -6.2993164 -2.8202972 -6.2993164 -6.2993317z" fill-rule="evenodd"/><path fill="#000000" d="m608.47144 175.92804l1.765625 0.453125q-0.5625 2.171875 -2.0 3.328125q-1.4375 1.140625 -3.53125 1.140625q-2.15625 0 -3.515625 -0.875q-1.34375 -0.890625 -2.0625 -2.546875q-0.703125 -1.671875 -0.703125 -3.59375q0 -2.078125 0.796875 -3.625q0.796875 -1.5625 2.265625 -2.359375q1.484375 -0.8125 3.25 -0.8125q2.0 0 3.359375 1.015625q1.375 1.015625 1.90625 2.875l-1.734375 0.40625q-0.46875 -1.453125 -1.359375 -2.109375q-0.875 -0.671875 -2.203125 -0.671875q-1.546875 0 -2.578125 0.734375q-1.03125 0.734375 -1.453125 1.984375q-0.421875 1.234375 -0.421875 2.5625q0 1.703125 0.5 2.96875q0.5 1.265625 1.546875 1.90625q1.046875 0.625 2.265625 0.625q1.484375 0 2.515625 -0.859375q1.03125 -0.859375 1.390625 -2.546875zm7.3167114 3.21875l0.234375 1.453125q-0.6875 0.140625 -1.234375 0.140625q-0.890625 0 -1.390625 -0.28125q-0.484375 -0.28125 -0.6875 -0.734375q-0.203125 -0.46875 -0.203125 -1.9375l0 -5.578125l-1.203125 0l0 -1.265625l1.203125 0l0 -2.390625l1.625 -0.984375l0 3.375l1.65625 0l0 1.265625l-1.65625 0l0 5.671875q0 0.6875 0.078125 0.890625q0.09375 0.203125 0.28125 0.328125q0.203125 0.109375 0.578125 0.109375q0.265625 0 0.71875 -0.0625zm1.5895386 1.46875l0 -9.671875l1.46875 0l0 1.46875q0.5625 -1.03125 1.03125 -1.359375q0.484375 -0.328125 1.0625 -0.328125q0.828125 0 1.6875 0.53125l-0.5625 1.515625q-0.609375 -0.359375 -1.203125 -0.359375q-0.546875 0 -0.96875 0.328125q-0.421875 0.328125 -0.609375 0.890625q-0.28125 0.875 -0.28125 1.921875l0 5.0625l-1.625 0z" fill-rule="nonzero"/><path fill="#cfe2f3" d="m416.00082 24.588053l0 0c0 -3.4790287 2.8203125 -6.2993393 6.2993164 -6.2993393l100.78714 0c1.6707153 0 3.2729492 0.6636791 4.4543457 1.8450336c1.1813354 1.1813564 1.8450317 2.783617 1.8450317 4.4543056l0 25.1966c0 3.4790268 -2.8203125 6.2993355 -6.2993774 6.2993355l-100.78714 0c-3.479004 0 -6.2993164 -2.8203087 -6.2993164 -6.2993355z" fill-rule="evenodd"/><path stroke="#000000" stroke-width="1.0" stroke-linejoin="round" stroke-linecap="butt" d="m416.00082 24.588053l0 0c0 -3.4790287 2.8203125 -6.2993393 6.2993164 -6.2993393l100.78714 0c1.6707153 0 3.2729492 0.6636791 4.4543457 1.8450336c1.1813354 1.1813564 1.8450317 2.783617 1.8450317 4.4543056l0 25.1966c0 3.4790268 -2.8203125 6.2993355 -6.2993774 6.2993355l-100.78714 0c-3.479004 0 -6.2993164 -2.8203087 -6.2993164 -6.2993355z" fill-rule="evenodd"/><path fill="#000000" d="m465.86523 38.871975l0 -1.578125l5.65625 0l0 4.953125q-1.296875 1.046875 -2.6875 1.578125q-1.375 0.515625 -2.84375 0.515625q-1.96875 0 -3.578125 -0.84375q-1.609375 -0.84375 -2.421875 -2.4375q-0.8125 -1.59375 -0.8125 -3.5625q0 -1.953125 0.8125 -3.640625q0.8125 -1.6875 2.34375 -2.5q1.53125 -0.828125 3.515625 -0.828125q1.453125 0 2.625 0.46875q1.171875 0.46875 1.828125 1.3125q0.671875 0.828125 1.015625 2.171875l-1.59375 0.4375q-0.296875 -1.015625 -0.75 -1.59375q-0.4375 -0.59375 -1.265625 -0.9375q-0.828125 -0.34375 -1.84375 -0.34375q-1.203125 0 -2.09375 0.375q-0.890625 0.359375 -1.4375 0.96875q-0.53125 0.59375 -0.828125 1.3125q-0.515625 1.234375 -0.515625 2.6875q0 1.78125 0.609375 2.984375q0.625 1.203125 1.796875 1.796875q1.171875 0.578125 2.5 0.578125q1.140625 0 2.234375 -0.4375q1.09375 -0.453125 1.65625 -0.953125l0 -2.484375l-3.921875 0zm14.386444 5.234375l0 -1.421875q-1.125 1.640625 -3.0625 1.640625q-0.859375 0 -1.609375 -0.328125q-0.734375 -0.328125 -1.09375 -0.828125q-0.359375 -0.5 -0.5 -1.21875q-0.109375 -0.46875 -0.109375 -1.53125l0 -5.984375l1.640625 0l0 5.359375q0 1.28125 0.109375 1.734375q0.15625 0.640625 0.65625 1.015625q0.5 0.375 1.234375 0.375q0.734375 0 1.375 -0.375q0.65625 -0.390625 0.921875 -1.03125q0.265625 -0.65625 0.265625 -1.890625l0 -5.1875l1.640625 0l0 9.671875l-1.46875 0zm4.047577 -11.46875l0 -1.890625l1.640625 0l0 1.890625l-1.640625 0zm0 11.46875l0 -9.671875l1.640625 0l0 9.671875l-1.640625 0z" fill-rule="nonzero"/><path fill="#cfe2f3" d="m4.4750657 261.10254l0 0c0 -5.2185364 4.2304645 -9.44899 9.449007 -9.44899l94.487816 0c2.5060272 0 4.909424 0.9955139 6.6814575 2.7675476c1.7720261 1.7720184 2.7675476 4.1754303 2.7675476 6.6814423l0 37.79492c0 5.2185364 -4.2304688 9.449005 -9.449005 9.449005l-94.487816 0c-5.218543 0 -9.449007 -4.2304688 -9.449007 -9.449005z" fill-rule="evenodd"/><path stroke="#000000" stroke-width="1.0" stroke-linejoin="round" stroke-linecap="butt" d="m4.4750657 261.10254l0 0c0 -5.2185364 4.2304645 -9.44899 9.449007 -9.44899l94.487816 0c2.5060272 0 4.909424 0.9955139 6.6814575 2.7675476c1.7720261 1.7720184 2.7675476 4.1754303 2.7675476 6.6814423l0 37.79492c0 5.2185364 -4.2304688 9.449005 -9.449005 9.449005l-94.487816 0c-5.218543 0 -9.449007 -4.2304688 -9.449007 -9.449005z" fill-rule="evenodd"/><path fill="#000000" d="m27.791903 282.62314l1.65625 -0.140625q0.125 1.0 0.546875 1.640625q0.4375 0.640625 1.34375 1.046875q0.9218731 0.390625 2.062498 0.390625q1.0 0 1.78125 -0.296875q0.78125 -0.296875 1.15625 -0.8125q0.375 -0.53125 0.375 -1.15625q0 -0.625 -0.375 -1.09375q-0.359375 -0.46875 -1.1875 -0.796875q-0.546875 -0.203125 -2.390625 -0.640625q-1.8281231 -0.453125 -2.562498 -0.84375q-0.96875 -0.5 -1.4375 -1.234375q-0.46875 -0.75 -0.46875 -1.671875q0 -1.0 0.578125 -1.875q0.578125 -0.890625 1.671875 -1.34375q1.109375 -0.453125 2.453123 -0.453125q1.484375 0 2.609375 0.484375q1.140625 0.46875 1.75 1.40625q0.609375 0.921875 0.65625 2.09375l-1.6875 0.125q-0.140625 -1.265625 -0.9375 -1.90625q-0.78125 -0.65625 -2.3125 -0.65625q-1.6093731 0 -2.343748 0.59375q-0.734375 0.59375 -0.734375 1.421875q0 0.71875 0.53125 1.171875q0.5 0.46875 2.656248 0.96875q2.15625 0.484375 2.953125 0.84375q1.171875 0.53125 1.71875 1.359375q0.5625 0.828125 0.5625 1.90625q0 1.0625 -0.609375 2.015625q-0.609375 0.9375 -1.75 1.46875q-1.140625 0.515625 -2.578125 0.515625q-1.8124981 0 -3.046873 -0.53125q-1.21875 -0.53125 -1.921875 -1.59375q-0.6875 -1.0625 -0.71875 -2.40625zm19.459196 1.1875l1.6875 0.203125q-0.40625 1.484375 -1.484375 2.3125q-1.078125 0.8125 -2.765625 0.8125q-2.125 0 -3.375 -1.296875q-1.234375 -1.3125 -1.234375 -3.671875q0 -2.453125 1.25 -3.796875q1.265625 -1.34375 3.265625 -1.34375q1.9375 0 3.15625 1.328125q1.234375 1.3125 1.234375 3.703125q0 0.15625 0 0.4375l-7.21875 0q0.09375 1.59375 0.90625 2.453125q0.8125 0.84375 2.015625 0.84375q0.90625 0 1.546875 -0.46875q0.640625 -0.484375 1.015625 -1.515625zm-5.390625 -2.65625l5.40625 0q-0.109375 -1.21875 -0.625 -1.828125q-0.78125 -0.953125 -2.03125 -0.953125q-1.125 0 -1.90625 0.765625q-0.765625 0.75 -0.84375 2.015625zm9.141342 5.765625l0 -9.671875l1.46875 0l0 1.375q1.0625 -1.59375 3.078125 -1.59375q0.875 0 1.609375 0.3125q0.734375 0.3125 1.09375 0.828125q0.375 0.5 0.515625 1.203125q0.09375 0.453125 0.09375 1.59375l0 5.953125l-1.640625 0l0 -5.890625q0 -1.0 -0.203125 -1.484375q-0.1875 -0.5 -0.671875 -0.796875q-0.484375 -0.296875 -1.140625 -0.296875q-1.046875 0 -1.8125 0.671875q-0.75 0.65625 -0.75 2.515625l0 5.28125l-1.640625 0zm9.719467 -2.890625l1.625 -0.25q0.125 0.96875 0.75 1.5q0.625 0.515625 1.75 0.515625q1.125 0 1.671875 -0.453125q0.546875 -0.46875 0.546875 -1.09375q0 -0.546875 -0.484375 -0.875q-0.328125 -0.21875 -1.671875 -0.546875q-1.8125 -0.46875 -2.515625 -0.796875q-0.6875 -0.328125 -1.046875 -0.90625q-0.359375 -0.59375 -0.359375 -1.3125q0 -0.640625 0.296875 -1.1875q0.296875 -0.5625 0.8125 -0.921875q0.375 -0.28125 1.03125 -0.46875q0.671875 -0.203125 1.421875 -0.203125q1.140625 0 2.0 0.328125q0.859375 0.328125 1.265625 0.890625q0.421875 0.5625 0.578125 1.5l-1.609375 0.21875q-0.109375 -0.75 -0.640625 -1.171875q-0.515625 -0.421875 -1.46875 -0.421875q-1.140625 0 -1.625 0.375q-0.46875 0.375 -0.46875 0.875q0 0.3125 0.1875 0.578125q0.203125 0.265625 0.640625 0.4375q0.234375 0.09375 1.4375 0.421875q1.75 0.453125 2.4375 0.75q0.6875 0.296875 1.078125 0.859375q0.390625 0.5625 0.390625 1.40625q0 0.828125 -0.484375 1.546875q-0.46875 0.71875 -1.375 1.125q-0.90625 0.390625 -2.046875 0.390625q-1.875 0 -2.875 -0.78125q-0.984375 -0.78125 -1.25 -2.328125zm9.375 -1.953125q0 -2.6875 1.484375 -3.96875q1.25 -1.078125 3.046875 -1.078125q2.0 0 3.265625 1.3125q1.265625 1.296875 1.265625 3.609375q0 1.859375 -0.5625 2.9375q-0.5625 1.0625 -1.640625 1.65625q-1.0625 0.59375 -2.328125 0.59375q-2.03125 0 -3.28125 -1.296875q-1.25 -1.3125 -1.25 -3.765625zm1.6875 0q0 1.859375 0.796875 2.796875q0.8125 0.921875 2.046875 0.921875q1.21875 0 2.03125 -0.921875q0.8125 -0.9375 0.8125 -2.84375q0 -1.796875 -0.8125 -2.71875q-0.8125 -0.921875 -2.03125 -0.921875q-1.234375 0 -2.046875 0.921875q-0.796875 0.90625 -0.796875 2.765625zm9.281967 4.84375l0 -9.671875l1.46875 0l0 1.46875q0.5625 -1.03125 1.03125 -1.359375q0.484375 -0.328125 1.0625 -0.328125q0.828125 0 1.6875 0.53125l-0.5625 1.515625q-0.609375 -0.359375 -1.203125 -0.359375q-0.546875 0 -0.96875 0.328125q-0.421875 0.328125 -0.609375 0.890625q-0.28125 0.875 -0.28125 1.921875l0 5.0625l-1.625 0zm5.572052 -2.890625l1.625 -0.25q0.125 0.96875 0.75 1.5q0.625 0.515625 1.75 0.515625q1.125 0 1.671875 -0.453125q0.546875 -0.46875 0.546875 -1.09375q0 -0.546875 -0.484375 -0.875q-0.328125 -0.21875 -1.671875 -0.546875q-1.8125 -0.46875 -2.515625 -0.796875q-0.6875 -0.328125 -1.046875 -0.90625q-0.359375 -0.59375 -0.359375 -1.3125q0 -0.640625 0.296875 -1.1875q0.296875 -0.5625 0.8125 -0.921875q0.375 -0.28125 1.03125 -0.46875q0.671875 -0.203125 1.421875 -0.203125q1.140625 0 2.0 0.328125q0.859375 0.328125 1.265625 0.890625q0.421875 0.5625 0.578125 1.5l-1.609375 0.21875q-0.109375 -0.75 -0.640625 -1.171875q-0.515625 -0.421875 -1.46875 -0.421875q-1.140625 0 -1.625 0.375q-0.46875 0.375 -0.46875 0.875q0 0.3125 0.1875 0.578125q0.203125 0.265625 0.640625 0.4375q0.234375 0.09375 1.4375 0.421875q1.75 0.453125 2.4375 0.75q0.6875 0.296875 1.078125 0.859375q0.390625 0.5625 0.390625 1.40625q0 0.828125 -0.484375 1.546875q-0.46875 0.71875 -1.375 1.125q-0.90625 0.390625 -2.046875 0.390625q-1.875 0 -2.875 -0.78125q-0.984375 -0.78125 -1.25 -2.328125z" fill-rule="nonzero"/><path fill="#cfe2f3" d="m704.4381 261.10254l0 0c0 -5.2185364 4.2304688 -9.44899 9.449036 -9.44899l94.48779 0c2.5060425 0 4.909424 0.9955139 6.6814575 2.7675476c1.7720337 1.7720184 2.7675781 4.1754303 2.7675781 6.6814423l0 37.79492c0 5.2185364 -4.2304688 9.449005 -9.449036 9.449005l-94.48779 0c-5.218567 0 -9.449036 -4.2304688 -9.449036 -9.449005z" fill-rule="evenodd"/><path stroke="#000000" stroke-width="1.0" stroke-linejoin="round" stroke-linecap="butt" d="m704.4381 261.10254l0 0c0 -5.2185364 4.2304688 -9.44899 9.449036 -9.44899l94.48779 0c2.5060425 0 4.909424 0.9955139 6.6814575 2.7675476c1.7720337 1.7720184 2.7675781 4.1754303 2.7675781 6.6814423l0 37.79492c0 5.2185364 -4.2304688 9.449005 -9.449036 9.449005l-94.48779 0c-5.218567 0 -9.449036 -4.2304688 -9.449036 -9.449005z" fill-rule="evenodd"/><path fill="#000000" d="m721.69666 286.92l5.125 -13.359375l1.90625 0l5.46875 13.359375l-2.015625 0l-1.546875 -4.046875l-5.59375 0l-1.46875 4.046875l-1.875 0zm3.859375 -5.484375l4.53125 0l-1.40625 -3.703125q-0.625 -1.6875 -0.9375 -2.765625q-0.265625 1.28125 -0.71875 2.546875l-1.46875 3.921875zm16.162354 1.9375l1.609375 0.21875q-0.265625 1.65625 -1.359375 2.609375q-1.078125 0.9375 -2.671875 0.9375q-1.984375 0 -3.1875 -1.296875q-1.203125 -1.296875 -1.203125 -3.71875q0 -1.578125 0.515625 -2.75q0.515625 -1.171875 1.578125 -1.75q1.0625 -0.59375 2.3125 -0.59375q1.578125 0 2.578125 0.796875q1.0 0.796875 1.28125 2.265625l-1.59375 0.234375q-0.234375 -0.96875 -0.8125 -1.453125q-0.578125 -0.5 -1.390625 -0.5q-1.234375 0 -2.015625 0.890625q-0.78125 0.890625 -0.78125 2.8125q0 1.953125 0.75 2.84375q0.75 0.875 1.953125 0.875q0.96875 0 1.609375 -0.59375q0.65625 -0.59375 0.828125 -1.828125zm6.59375 2.078125l0.234375 1.453125q-0.6875 0.140625 -1.234375 0.140625q-0.890625 0 -1.390625 -0.28125q-0.484375 -0.28125 -0.6875 -0.734375q-0.203125 -0.46875 -0.203125 -1.9375l0 -5.578125l-1.203125 0l0 -1.265625l1.203125 0l0 -2.390625l1.625 -0.984375l0 3.375l1.65625 0l0 1.265625l-1.65625 0l0 5.671875q0 0.6875 0.078125 0.890625q0.09375 0.203125 0.28125 0.328125q0.203125 0.109375 0.578125 0.109375q0.265625 0 0.71875 -0.0625zm7.9332886 1.46875l0 -1.421875q-1.125 1.640625 -3.0625 1.640625q-0.859375 0 -1.609375 -0.328125q-0.734375 -0.328125 -1.09375 -0.828125q-0.359375 -0.5 -0.5 -1.21875q-0.109375 -0.46875 -0.109375 -1.53125l0 -5.984375l1.640625 0l0 5.359375q0 1.28125 0.109375 1.734375q0.15625 0.640625 0.65625 1.015625q0.5 0.375 1.234375 0.375q0.734375 0 1.375 -0.375q0.65625 -0.390625 0.921875 -1.03125q0.265625 -0.65625 0.265625 -1.890625l0 -5.1875l1.640625 0l0 9.671875l-1.46875 0zm10.360107 -1.1875q-0.921875 0.765625 -1.765625 1.09375q-0.828125 0.3125 -1.796875 0.3125q-1.59375 0 -2.453125 -0.78125q-0.859375 -0.78125 -0.859375 -1.984375q0 -0.71875 0.328125 -1.296875q0.328125 -0.59375 0.84375 -0.9375q0.53125 -0.359375 1.1875 -0.546875q0.46875 -0.125 1.453125 -0.25q1.984375 -0.234375 2.921875 -0.5625q0.015625 -0.34375 0.015625 -0.421875q0 -1.0 -0.46875 -1.421875q-0.625 -0.546875 -1.875 -0.546875q-1.15625 0 -1.703125 0.40625q-0.546875 0.40625 -0.8125 1.421875l-1.609375 -0.21875q0.21875 -1.015625 0.71875 -1.640625q0.5 -0.640625 1.453125 -0.984375q0.953125 -0.34375 2.1875 -0.34375q1.25 0 2.015625 0.296875q0.78125 0.28125 1.140625 0.734375q0.375 0.4375 0.515625 1.109375q0.078125 0.421875 0.078125 1.515625l0 2.1875q0 2.28125 0.109375 2.890625q0.109375 0.59375 0.40625 1.15625l-1.703125 0q-0.265625 -0.515625 -0.328125 -1.1875zm-0.140625 -3.671875q-0.890625 0.375 -2.671875 0.625q-1.015625 0.140625 -1.4375 0.328125q-0.421875 0.1875 -0.65625 0.53125q-0.21875 0.34375 -0.21875 0.78125q0 0.65625 0.5 1.09375q0.5 0.4375 1.453125 0.4375q0.9375 0 1.671875 -0.40625q0.75 -0.421875 1.09375 -1.140625q0.265625 -0.5625 0.265625 -1.640625l0 -0.609375zm7.7819214 3.390625l0.234375 1.453125q-0.6875 0.140625 -1.234375 0.140625q-0.890625 0 -1.390625 -0.28125q-0.484375 -0.28125 -0.6875 -0.734375q-0.203125 -0.46875 -0.203125 -1.9375l0 -5.578125l-1.203125 0l0 -1.265625l1.203125 0l0 -2.390625l1.625 -0.984375l0 3.375l1.65625 0l0 1.265625l-1.65625 0l0 5.671875q0 0.6875 0.078125 0.890625q0.09375 0.203125 0.28125 0.328125q0.203125 0.109375 0.578125 0.109375q0.265625 0 0.71875 -0.0625zm0.9958496 -3.375q0 -2.6875 1.484375 -3.96875q1.25 -1.078125 3.046875 -1.078125q2.0 0 3.265625 1.3125q1.265625 1.296875 1.265625 3.609375q0 1.859375 -0.5625 2.9375q-0.5625 1.0625 -1.640625 1.65625q-1.0625 0.59375 -2.328125 0.59375q-2.03125 0 -3.28125 -1.296875q-1.25 -1.3125 -1.25 -3.765625zm1.6875 0q0 1.859375 0.796875 2.796875q0.8125 0.921875 2.046875 0.921875q1.21875 0 2.03125 -0.921875q0.8125 -0.9375 0.8125 -2.84375q0 -1.796875 -0.8125 -2.71875q-0.8125 -0.921875 -2.03125 -0.921875q-1.234375 0 -2.046875 0.921875q-0.796875 0.90625 -0.796875 2.765625zm9.281921 4.84375l0 -9.671875l1.46875 0l0 1.46875q0.5625 -1.03125 1.03125 -1.359375q0.484375 -0.328125 1.0625 -0.328125q0.828125 0 1.6875 0.53125l-0.5625 1.515625q-0.609375 -0.359375 -1.203125 -0.359375q-0.546875 0 -0.96875 0.328125q-0.421875 0.328125 -0.609375 0.890625q-0.28125 0.875 -0.28125 1.921875l0 5.0625l-1.625 0zm5.5720825 -2.890625l1.625 -0.25q0.125 0.96875 0.75 1.5q0.625 0.515625 1.75 0.515625q1.125 0 1.671875 -0.453125q0.546875 -0.46875 0.546875 -1.09375q0 -0.546875 -0.484375 -0.875q-0.328125 -0.21875 -1.671875 -0.546875q-1.8125 -0.46875 -2.515625 -0.796875q-0.6875 -0.328125 -1.046875 -0.90625q-0.359375 -0.59375 -0.359375 -1.3125q0 -0.640625 0.296875 -1.1875q0.296875 -0.5625 0.8125 -0.921875q0.375 -0.28125 1.03125 -0.46875q0.671875 -0.203125 1.421875 -0.203125q1.140625 0 2.0 0.328125q0.859375 0.328125 1.265625 0.890625q0.421875 0.5625 0.578125 1.5l-1.609375 0.21875q-0.109375 -0.75 -0.640625 -1.171875q-0.515625 -0.421875 -1.46875 -0.421875q-1.140625 0 -1.625 0.375q-0.46875 0.375 -0.46875 0.875q0 0.3125 0.1875 0.578125q0.203125 0.265625 0.640625 0.4375q0.234375 0.09375 1.4375 0.421875q1.75 0.453125 2.4375 0.75q0.6875 0.296875 1.078125 0.859375q0.390625 0.5625 0.390625 1.40625q0 0.828125 -0.484375 1.546875q-0.46875 0.71875 -1.375 1.125q-0.90625 0.390625 -2.046875 0.390625q-1.875 0 -2.875 -0.78125q-0.984375 -0.78125 -1.25 -2.328125z" fill-rule="nonzero"/><path fill="#000000" fill-opacity="0.0" d="m287.10815 128.70604c32.223053 0 48.335846 -22.88189 64.446106 -45.76378c16.11023 -22.881893 32.217896 -45.763783 64.43579 -45.763783" fill-rule="evenodd"/><path stroke="#000000" stroke-width="1.0" stroke-linejoin="round" stroke-linecap="butt" d="m287.10815 128.70604c32.223053 0 48.335876 -22.88189 64.446106 -45.76378c8.055115 -11.4409485 16.109589 -22.881893 26.17752 -31.4626c5.033966 -4.2903557 10.571289 -7.86565 16.863739 -10.368359c3.1462402 -1.2513504 6.481262 -2.234558 10.036499 -2.9049263c0.88882446 -0.1675911 1.7914124 -0.31563187 2.708252 -0.4434204c0.45840454 -0.06389618 0.92037964 -0.12272644 1.3859863 -0.17640686c0.2328186 -0.02684021 0.46652222 -0.052394867 0.70114136 -0.07665253l0.56900024 -0.05544281" fill-rule="evenodd"/><path fill="#000000" stroke="#000000" stroke-width="1.0" stroke-linecap="butt" d="m410.07236 39.104435l4.4573364 -1.858715l-4.6092834 -1.4412537z" fill-rule="evenodd"/><path fill="#000000" fill-opacity="0.0" d="m529.38666 37.18635c40.2677 0 80.5354 58.80315 80.5354 117.60629" fill-rule="evenodd"/><path stroke="#000000" stroke-width="1.0" stroke-linejoin="round" stroke-linecap="butt" d="m529.38666 37.18635c20.13385 0 40.2677 14.700787 55.368103 36.751972c7.550171 11.025589 13.842041 23.888779 18.246277 37.67076c2.2021484 6.890999 3.932434 14.011688 5.1121216 21.247238c0.5899048 3.6177673 1.0421143 7.2642517 1.3468628 10.925095c0.076171875 0.9152069 0.14318848 1.8313141 0.20080566 2.7480927c0.028747559 0.45838928 0.055236816 0.9169464 0.0793457 1.3756561l0.042114258 0.8891144" fill-rule="evenodd"/><path fill="#000000" stroke="#000000" stroke-width="1.0" stroke-linecap="butt" d="m608.131 148.83278l1.757019 4.4983673l1.5455322 -4.575363z" fill-rule="evenodd"/><path fill="#000000" fill-opacity="0.0" d="m666.63007 173.69554c47.24414 0 94.48822 38.97638 94.48822 77.95276" fill-rule="evenodd"/><path stroke="#000000" stroke-width="1.0" stroke-linejoin="round" stroke-linecap="butt" d="m666.63007 173.69554c23.62207 0 47.24414 9.744095 64.96063 24.36023c8.858276 7.308075 16.240173 15.834152 21.40747 24.969238c2.5836792 4.5675507 4.6137085 9.2873535 5.9978027 14.083252c0.6920166 2.3979797 1.2225952 4.814972 1.5802002 7.2414703c0.04473877 0.3033142 0.08673096 0.606781 0.12591553 0.91038513l0.049865723 0.3993683" fill-rule="evenodd"/><path fill="#000000" stroke="#000000" stroke-width="1.0" stroke-linecap="butt" d="m759.10333 245.76033l1.9257202 4.428787l1.371582 -4.630478z" fill-rule="evenodd"/><path fill="#000000" fill-opacity="0.0" d="m287.10815 128.70604c66.53409 0 99.800476 11.244095 133.0682 22.48819c33.2677 11.244095 66.53674 22.48819 133.07352 22.48819" fill-rule="evenodd"/><path stroke="#000000" stroke-width="1.0" stroke-linejoin="round" stroke-linecap="butt" d="m287.10815 128.70604c66.53412 0 99.800476 11.244095 133.06818 22.48819c16.63388 5.62204 33.268066 11.244095 54.060883 15.460632c10.396454 2.108261 21.83252 3.865158 34.828003 5.0949707c6.497772 0.61491394 13.385345 1.098053 20.727875 1.427475c3.6712036 0.16471863 7.4561157 0.2909851 11.362854 0.37608337c1.9533691 0.042556763 3.9372559 0.07481384 5.9525757 0.09642029l0.14141846 0.0013275146" fill-rule="evenodd"/><path fill="#000000" stroke="#000000" stroke-width="1.0" stroke-linecap="butt" d="m547.24133 175.30286l4.546692 -1.628067l-4.52948 -1.675354z" fill-rule="evenodd"/><path fill="#000000" fill-opacity="0.0" d="m61.16798 251.65355c0 -61.480316 56.283466 -122.96063 112.566925 -122.96063" fill-rule="evenodd"/><path stroke="#000000" stroke-width="1.0" stroke-linejoin="round" stroke-linecap="butt" d="m61.16798 251.65355c0 -61.480316 56.283466 -122.96063 112.566925 -122.96063" fill-rule="evenodd"/><path fill="#000000" fill-opacity="0.0" d="m55.498688 195.28215l143.77953 0l0 56.692917l-143.77953 0z" fill-rule="evenodd"/><path fill="#000000" d="m112.134544 219.64215l2.40625 -11.453125l4.796875 0q1.421875 0 2.15625 0.234375q0.734375 0.234375 1.15625 0.890625q0.421875 0.65625 0.421875 1.65625q0 1.40625 -0.921875 2.328125q-0.90625 0.921875 -2.953125 1.1875q0.625 0.46875 0.953125 0.90625q0.71875 1.015625 1.15625 2.09375l0.875 2.15625l-1.71875 0l-0.8125 -2.140625q-0.453125 -1.15625 -1.015625 -2.0q-0.390625 -0.578125 -0.796875 -0.765625q-0.40625 -0.1875 -1.328125 -0.1875l-1.78125 0l-1.0625 5.09375l-1.53125 0zm2.859375 -6.328125l2.109375 0q1.46875 0 1.921875 -0.046875q0.859375 -0.078125 1.40625 -0.375q0.5625 -0.3125 0.859375 -0.828125q0.3125 -0.515625 0.3125 -1.109375q0 -0.5 -0.234375 -0.875q-0.21875 -0.375 -0.59375 -0.5q-0.359375 -0.140625 -1.234375 -0.140625l-3.734375 0l-0.8125 3.875zm14.070305 5.296875q-0.734375 0.625 -1.4218674 0.921875q-0.671875 0.296875 -1.4375 0.296875q-1.15625 0 -1.859375 -0.671875q-0.703125 -0.6875 -0.703125 -1.734375q0 -0.703125 0.3125 -1.234375q0.328125 -0.53125 0.84375 -0.859375q0.53125 -0.328125 1.28125 -0.46875q0.484375 -0.09375 1.8125 -0.140625q1.3281174 -0.0625 1.9062424 -0.28125q0.171875 -0.578125 0.171875 -0.96875q0 -0.484375 -0.359375 -0.765625q-0.5 -0.390625 -1.4375 -0.390625q-0.8906174 0 -1.4687424 0.390625q-0.5625 0.390625 -0.8125 1.125l-1.4375 -0.125q0.4375 -1.234375 1.390625 -1.890625q0.953125 -0.65625 2.3906174 -0.65625q1.546875 0 2.4375 0.734375q0.6875 0.546875 0.6875 1.421875q0 0.65625 -0.1875 1.53125l-0.46875 2.0625q-0.21875 0.984375 -0.21875 1.609375q0 0.390625 0.171875 1.125l-1.421875 0q-0.125 -0.40625 -0.171875 -1.03125zm0.53125 -3.171875q-0.296875 0.109375 -0.640625 0.171875q-0.34375 0.0625 -1.1406174 0.140625q-1.234375 0.109375 -1.75 0.28125q-0.5 0.15625 -0.765625 0.53125q-0.25 0.359375 -0.25 0.8125q0 0.59375 0.40625 0.984375q0.421875 0.375 1.171875 0.375q0.703125 0 1.34375 -0.375q0.6562424 -0.375 1.0312424 -1.03125q0.375 -0.671875 0.59375 -1.890625zm4.3515625 4.203125l-0.859375 -8.296875l1.359375 0l0.375 3.71875l0.140625 2.09375q0.015625 0.234375 0.046875 0.953125q0.234375 -0.796875 0.390625 -1.21875q0.171875 -0.4375 0.53125 -1.21875l1.984375 -4.328125l1.53125 0l0.28125 4.140625q0.0625 0.953125 0.078125 2.53125q0.390625 -1.046875 1.265625 -2.90625l1.78125 -3.765625l1.421875 0l-4.0625 8.296875l-1.46875 0l-0.3125 -4.875q-0.03125 -0.453125 -0.046875 -1.765625q-0.3125 0.84375 -0.75 1.8125l-2.203125 4.828125l-1.484375 0z" fill-rule="nonzero"/><path fill="#000000" d="m75.009544 238.64215l1.734375 -8.296875l1.40625 0l-0.28125 1.359375q0.78125 -0.875 1.40625 -1.203125q0.625 -0.34375 1.34375 -0.34375q0.78125 0 1.296875 0.40625q0.515625 0.40625 0.6875 1.140625q0.625 -0.78125 1.328125 -1.15625q0.703125 -0.390625 1.46875 -0.390625q1.046875 0 1.5625 0.5q0.515625 0.484375 0.515625 1.375q0 0.375 -0.171875 1.265625l-1.125 5.34375l-1.40625 0l1.140625 -5.484375q0.140625 -0.671875 0.140625 -0.96875q0 -0.40625 -0.265625 -0.640625q-0.25 -0.234375 -0.71875 -0.234375q-0.625 0 -1.28125 0.390625q-0.65625 0.375 -1.03125 1.0q-0.359375 0.625 -0.625 1.90625l-0.84375 4.03125l-1.421875 0l1.171875 -5.609375q0.125 -0.5625 0.125 -0.8125q0 -0.40625 -0.25 -0.65625q-0.25 -0.25 -0.65625 -0.25q-0.609375 0 -1.265625 0.390625q-0.65625 0.375 -1.078125 1.0625q-0.40625 0.6875 -0.671875 1.953125l-0.828125 3.921875l-1.40625 0zm19.421875 -2.828125l1.375 0.140625q-0.296875 1.03125 -1.359375 1.953125q-1.0625 0.921875 -2.546875 0.921875q-0.921875 0 -1.6875 -0.421875q-0.765625 -0.4375 -1.171875 -1.25q-0.40625 -0.8125 -0.40625 -1.84375q0 -1.359375 0.625 -2.640625q0.640625 -1.28125 1.640625 -1.890625q1.0 -0.625 2.15625 -0.625q1.484375 0 2.375 0.921875q0.890625 0.921875 0.890625 2.515625q0 0.609375 -0.109375 1.25l-6.109375 0q-0.03125 0.234375 -0.03125 0.4375q0 1.15625 0.53125 1.78125q0.53125 0.609375 1.3125 0.609375q0.71875 0 1.421875 -0.46875q0.703125 -0.484375 1.09375 -1.390625zm-4.109375 -2.046875l4.65625 0q0.015625 -0.21875 0.015625 -0.3125q0 -1.0625 -0.53125 -1.625q-0.53125 -0.578125 -1.375 -0.578125q-0.90625 0 -1.65625 0.625q-0.734375 0.625 -1.109375 1.890625zm12.5078125 3.84375q-0.734375 0.625 -1.421875 0.921875q-0.671875 0.296875 -1.4375 0.296875q-1.15625 0 -1.859375 -0.671875q-0.703125 -0.6875 -0.703125 -1.734375q0 -0.703125 0.3125 -1.234375q0.328125 -0.53125 0.84375 -0.859375q0.53125 -0.328125 1.28125 -0.46875q0.484375 -0.09375 1.8125 -0.140625q1.328125 -0.0625 1.90625 -0.28125q0.171875 -0.578125 0.171875 -0.96875q0 -0.484375 -0.359375 -0.765625q-0.5 -0.390625 -1.4375 -0.390625q-0.890625 0 -1.46875 0.390625q-0.5625 0.390625 -0.8125 1.125l-1.4375 -0.125q0.4375 -1.234375 1.390625 -1.890625q0.953125 -0.65625 2.390625 -0.65625q1.546875 0 2.4375 0.734375q0.6875 0.546875 0.6875 1.421875q0 0.65625 -0.1875 1.53125l-0.46875 2.0625q-0.21875 0.984375 -0.21875 1.609375q0 0.390625 0.171875 1.125l-1.421875 0q-0.125 -0.40625 -0.171875 -1.03125zm0.53125 -3.171875q-0.296875 0.109375 -0.640625 0.171875q-0.34375 0.0625 -1.140625 0.140625q-1.234375 0.109375 -1.75 0.28125q-0.5 0.15625 -0.765625 0.53125q-0.25 0.359375 -0.25 0.8125q0 0.59375 0.40625 0.984375q0.421875 0.375 1.171875 0.375q0.703125 0 1.34375 -0.375q0.65625 -0.375 1.03125 -1.03125q0.375 -0.671875 0.59375 -1.890625zm2.9140625 1.359375l1.40625 -0.078125q0 0.609375 0.1875 1.046875q0.1875 0.421875 0.6875 0.703125q0.515625 0.265625 1.1875 0.265625q0.9375 0 1.40625 -0.375q0.46875 -0.375 0.46875 -0.890625q0 -0.359375 -0.28125 -0.6875q-0.296875 -0.328125 -1.421875 -0.8125q-1.109375 -0.484375 -1.421875 -0.671875q-0.53125 -0.328125 -0.796875 -0.75q-0.265625 -0.4375 -0.265625 -1.0q0 -0.984375 0.78125 -1.6875q0.78125 -0.703125 2.1875 -0.703125q1.5625 0 2.375 0.71875q0.828125 0.71875 0.859375 1.90625l-1.390625 0.09375q-0.03125 -0.75 -0.53125 -1.1875q-0.5 -0.4375 -1.40625 -0.4375q-0.734375 0 -1.140625 0.34375q-0.40625 0.328125 -0.40625 0.71875q0 0.390625 0.34375 0.6875q0.234375 0.203125 1.21875 0.625q1.625 0.703125 2.046875 1.109375q0.671875 0.640625 0.671875 1.578125q0 0.609375 -0.390625 1.203125q-0.375 0.59375 -1.15625 0.953125q-0.765625 0.359375 -1.828125 0.359375q-1.4375 0 -2.4375 -0.71875q-1.015625 -0.703125 -0.953125 -2.3125zm13.53125 1.34375q-1.5 1.6875 -3.0625 1.6875q-0.953125 0 -1.546875 -0.546875q-0.59375 -0.5625 -0.59375 -1.359375q0 -0.515625 0.265625 -1.796875l1.0 -4.78125l1.421875 0l-1.109375 5.296875q-0.140625 0.671875 -0.140625 1.03125q0 0.46875 0.28125 0.734375q0.28125 0.265625 0.84375 0.265625q0.59375 0 1.15625 -0.28125q0.5625 -0.296875 0.96875 -0.78125q0.421875 -0.5 0.671875 -1.171875q0.171875 -0.4375 0.40625 -1.515625l0.75 -3.578125l1.40625 0l-1.734375 8.296875l-1.296875 0l0.3125 -1.5zm3.2265625 1.5l1.734375 -8.296875l1.25 0l-0.34375 1.6875q0.640625 -0.953125 1.25 -1.40625q0.609375 -0.46875 1.2499924 -0.46875q0.421875 0 1.046875 0.296875l-0.578125 1.3125q-0.375 -0.265625 -0.8124924 -0.265625q-0.734375 0 -1.515625 0.828125q-0.78125 0.828125 -1.234375 2.984375l-0.703125 3.328125l-1.34375 0zm11.421867 -2.828125l1.375 0.140625q-0.296875 1.03125 -1.359375 1.953125q-1.0625 0.921875 -2.546875 0.921875q-0.921875 0 -1.6875 -0.421875q-0.765625 -0.4375 -1.171875 -1.25q-0.40625 -0.8125 -0.40625 -1.84375q0 -1.359375 0.625 -2.640625q0.640625 -1.28125 1.640625 -1.890625q1.0 -0.625 2.15625 -0.625q1.484375 0 2.375 0.921875q0.890625 0.921875 0.890625 2.515625q0 0.609375 -0.109375 1.25l-6.109375 0q-0.03125 0.234375 -0.03125 0.4375q0 1.15625 0.53125 1.78125q0.53125 0.609375 1.3125 0.609375q0.71875 0 1.421875 -0.46875q0.703125 -0.484375 1.09375 -1.390625zm-4.109375 -2.046875l4.65625 0q0.015625 -0.21875 0.015625 -0.3125q0 -1.0625 -0.53125 -1.625q-0.53125 -0.578125 -1.375 -0.578125q-0.90625 0 -1.65625 0.625q-0.734375 0.625 -1.109375 1.890625zm6.9140625 4.875l1.734375 -8.296875l1.40625 0l-0.28125 1.359375q0.78125 -0.875 1.40625 -1.203125q0.625 -0.34375 1.34375 -0.34375q0.78125 0 1.296875 0.40625q0.515625 0.40625 0.6875 1.140625q0.625 -0.78125 1.328125 -1.15625q0.703125 -0.390625 1.46875 -0.390625q1.046875 0 1.5625 0.5q0.515625 0.484375 0.515625 1.375q0 0.375 -0.171875 1.265625l-1.125 5.34375l-1.40625 0l1.140625 -5.484375q0.140625 -0.671875 0.140625 -0.96875q0 -0.40625 -0.265625 -0.640625q-0.25 -0.234375 -0.71875 -0.234375q-0.625 0 -1.28125 0.390625q-0.65625 0.375 -1.03125 1.0q-0.359375 0.625 -0.625 1.90625l-0.84375 4.03125l-1.421875 0l1.171875 -5.609375q0.125 -0.5625 0.125 -0.8125q0 -0.40625 -0.25 -0.65625q-0.25 -0.25 -0.65625 -0.25q-0.609375 0 -1.265625 0.390625q-0.65625 0.375 -1.078125 1.0625q-0.40625 0.6875 -0.671875 1.953125l-0.828125 3.921875l-1.40625 0zm19.421875 -2.828125l1.375 0.140625q-0.296875 1.03125 -1.359375 1.953125q-1.0625 0.921875 -2.546875 0.921875q-0.921875 0 -1.6875 -0.421875q-0.765625 -0.4375 -1.171875 -1.25q-0.40625 -0.8125 -0.40625 -1.84375q0 -1.359375 0.625 -2.640625q0.640625 -1.28125 1.640625 -1.890625q1.0 -0.625 2.15625 -0.625q1.484375 0 2.375 0.921875q0.890625 0.921875 0.890625 2.515625q0 0.609375 -0.109375 1.25l-6.109375 0q-0.03125 0.234375 -0.03125 0.4375q0 1.15625 0.53125 1.78125q0.53125 0.609375 1.3125 0.609375q0.71875 0 1.421875 -0.46875q0.703125 -0.484375 1.09375 -1.390625zm-4.109375 -2.046875l4.65625 0q0.015625 -0.21875 0.015625 -0.3125q0 -1.0625 -0.53125 -1.625q-0.53125 -0.578125 -1.375 -0.578125q-0.90625 0 -1.65625 0.625q-0.734375 0.625 -1.109375 1.890625zm6.9140625 4.875l1.734375 -8.296875l1.28125 0l-0.296875 1.4375q0.828125 -0.84375 1.546875 -1.234375q0.734375 -0.390625 1.5 -0.390625q1.0 0 1.578125 0.546875q0.578125 0.546875 0.578125 1.453125q0 0.46875 -0.203125 1.453125l-1.0625 5.03125l-1.40625 0l1.09375 -5.265625q0.171875 -0.765625 0.171875 -1.125q0 -0.421875 -0.296875 -0.671875q-0.28125 -0.265625 -0.8125 -0.265625q-1.09375 0 -1.9375 0.78125q-0.84375 0.78125 -1.25 2.6875l-0.796875 3.859375l-1.421875 0zm12.2109375 -1.15625l-0.234375 1.171875q-0.515625 0.125 -0.984375 0.125q-0.84375 0 -1.34375 -0.421875q-0.375 -0.3125 -0.375 -0.84375q0 -0.28125 0.203125 -1.265625l1.0 -4.8125l-1.109375 0l0.21875 -1.09375l1.125 0l0.421875 -2.046875l1.625 -0.96875l-0.640625 3.015625l1.390625 0l-0.234375 1.09375l-1.375 0l-0.96875 4.578125q-0.171875 0.875 -0.171875 1.046875q0 0.25 0.140625 0.390625q0.140625 0.125 0.46875 0.125q0.46875 0 0.84375 -0.09375zm1.2734375 -1.6875l1.40625 -0.078125q0 0.609375 0.1875 1.046875q0.1875 0.421875 0.6875 0.703125q0.515625 0.265625 1.1875 0.265625q0.9375 0 1.40625 -0.375q0.46875 -0.375 0.46875 -0.890625q0 -0.359375 -0.28125 -0.6875q-0.296875 -0.328125 -1.421875 -0.8125q-1.109375 -0.484375 -1.421875 -0.671875q-0.53125 -0.328125 -0.796875 -0.75q-0.265625 -0.4375 -0.265625 -1.0q0 -0.984375 0.78125 -1.6875q0.78125 -0.703125 2.1875 -0.703125q1.5625 0 2.375 0.71875q0.828125 0.71875 0.859375 1.90625l-1.390625 0.09375q-0.03125 -0.75 -0.53125 -1.1875q-0.5 -0.4375 -1.40625 -0.4375q-0.734375 0 -1.140625 0.34375q-0.40625 0.328125 -0.40625 0.71875q0 0.390625 0.34375 0.6875q0.234375 0.203125 1.21875 0.625q1.625 0.703125 2.046875 1.109375q0.671875 0.640625 0.671875 1.578125q0 0.609375 -0.390625 1.203125q-0.375 0.59375 -1.15625 0.953125q-0.765625 0.359375 -1.828125 0.359375q-1.4375 0 -2.4375 -0.71875q-1.015625 -0.703125 -0.953125 -2.3125z" fill-rule="nonzero"/><path fill="#000000" fill-opacity="0.0" d="m728.49866 167.82414l115.40161 0l0 56.692917l-115.40161 0z" fill-rule="evenodd"/><path fill="#000000" d="m751.5979 192.18414l2.109375 -10.15625l-3.75 0l0.265625 -1.296875l9.015625 0l-0.265625 1.296875l-3.734375 0l-2.109375 10.15625l-1.53125 0zm6.6640625 0l2.390625 -11.453125l1.421875 0l-0.921875 4.390625q0.796875 -0.765625 1.46875 -1.09375q0.6875 -0.328125 1.40625 -0.328125q1.03125 0 1.59375 0.546875q0.578125 0.53125 0.578125 1.421875q0 0.4375 -0.25 1.609375l-1.03125 4.90625l-1.40625 0l1.046875 -5.03125q0.234375 -1.09375 0.234375 -1.375q0 -0.40625 -0.28125 -0.65625q-0.28125 -0.265625 -0.8125 -0.265625q-0.765625 0 -1.46875 0.40625q-0.6875 0.40625 -1.09375 1.109375q-0.390625 0.6875 -0.71875 2.25l-0.734375 3.5625l-1.421875 0zm8.8984375 0l1.734375 -8.296875l1.25 0l-0.34375 1.6875q0.640625 -0.953125 1.25 -1.40625q0.609375 -0.46875 1.25 -0.46875q0.421875 0 1.046875 0.296875l-0.578125 1.3125q-0.375 -0.265625 -0.8125 -0.265625q-0.734375 0 -1.515625 0.828125q-0.78125 0.828125 -1.234375 2.984375l-0.703125 3.328125l-1.34375 0zm11.0 -1.5q-1.5 1.6875 -3.0625 1.6875q-0.953125 0 -1.546875 -0.546875q-0.59375 -0.5625 -0.59375 -1.359375q0 -0.515625 0.265625 -1.796875l1.0 -4.78125l1.421875 0l-1.109375 5.296875q-0.140625 0.671875 -0.140625 1.03125q0 0.46875 0.28125 0.734375q0.28125 0.265625 0.84375 0.265625q0.59375 0 1.15625 -0.28125q0.5625 -0.296875 0.96875 -0.78125q0.421875 -0.5 0.671875 -1.171875q0.171875 -0.4375 0.40625 -1.515625l0.75 -3.578125l1.40625 0l-1.734375 8.296875l-1.296875 0l0.3125 -1.5zm3.3671875 -1.34375l1.40625 -0.078125q0 0.609375 0.1875 1.046875q0.1875 0.421875 0.6875 0.703125q0.515625 0.265625 1.1875 0.265625q0.9375 0 1.40625 -0.375q0.46875 -0.375 0.46875 -0.890625q0 -0.359375 -0.28125 -0.6875q-0.296875 -0.328125 -1.421875 -0.8125q-1.109375 -0.484375 -1.421875 -0.671875q-0.53125 -0.328125 -0.796875 -0.75q-0.265625 -0.4375 -0.265625 -1.0q0 -0.984375 0.78125 -1.6875q0.78125 -0.703125 2.1875 -0.703125q1.5625 0 2.375 0.71875q0.828125 0.71875 0.859375 1.90625l-1.390625 0.09375q-0.03125 -0.75 -0.53125 -1.1875q-0.5 -0.4375 -1.40625 -0.4375q-0.734375 0 -1.140625 0.34375q-0.40625 0.328125 -0.40625 0.71875q0 0.390625 0.34375 0.6875q0.234375 0.203125 1.21875 0.625q1.625 0.703125 2.046875 1.109375q0.671875 0.640625 0.671875 1.578125q0 0.609375 -0.390625 1.203125q-0.375 0.59375 -1.15625 0.953125q-0.765625 0.359375 -1.828125 0.359375q-1.4375 0 -2.4375 -0.71875q-1.015625 -0.703125 -0.953125 -2.3125zm11.171875 1.6875l-0.234375 1.171875q-0.515625 0.125 -0.984375 0.125q-0.84375 0 -1.34375 -0.421875q-0.375 -0.3125 -0.375 -0.84375q0 -0.28125 0.203125 -1.265625l1.0 -4.8125l-1.109375 0l0.21875 -1.09375l1.125 0l0.421875 -2.046875l1.625 -0.96875l-0.640625 3.015625l1.390625 0l-0.234375 1.09375l-1.375 0l-0.96875 4.578125q-0.171875 0.875 -0.171875 1.046875q0 0.25 0.140625 0.390625q0.140625 0.125 0.46875 0.125q0.46875 0 0.84375 -0.09375zm11.171875 0.125q-0.734375 0.625 -1.421875 0.921875q-0.671875 0.296875 -1.4375 0.296875q-1.15625 0 -1.859375 -0.671875q-0.703125 -0.6875 -0.703125 -1.734375q0 -0.703125 0.3125 -1.234375q0.328125 -0.53125 0.84375 -0.859375q0.53125 -0.328125 1.28125 -0.46875q0.484375 -0.09375 1.8125 -0.140625q1.328125 -0.0625 1.90625 -0.28125q0.171875 -0.578125 0.171875 -0.96875q0 -0.484375 -0.359375 -0.765625q-0.5 -0.390625 -1.4375 -0.390625q-0.890625 0 -1.46875 0.390625q-0.5625 0.390625 -0.8125 1.125l-1.4375 -0.125q0.4375 -1.234375 1.390625 -1.890625q0.953125 -0.65625 2.390625 -0.65625q1.546875 0 2.4375 0.734375q0.6875 0.546875 0.6875 1.421875q0 0.65625 -0.1875 1.53125l-0.46875 2.0625q-0.21875 0.984375 -0.21875 1.609375q0 0.390625 0.171875 1.125l-1.421875 0q-0.125 -0.40625 -0.171875 -1.03125zm0.53125 -3.171875q-0.296875 0.109375 -0.640625 0.171875q-0.34375 0.0625 -1.140625 0.140625q-1.234375 0.109375 -1.75 0.28125q-0.5 0.15625 -0.765625 0.53125q-0.25 0.359375 -0.25 0.8125q0 0.59375 0.40625 0.984375q0.421875 0.375 1.171875 0.375q0.703125 0 1.34375 -0.375q0.65625 -0.375 1.03125 -1.03125q0.375 -0.671875 0.59375 -1.890625zm2.7734375 4.203125l1.734375 -8.296875l1.28125 0l-0.296875 1.4375q0.828125 -0.84375 1.546875 -1.234375q0.734375 -0.390625 1.5 -0.390625q1.0 0 1.578125 0.546875q0.578125 0.546875 0.578125 1.453125q0 0.46875 -0.203125 1.453125l-1.0625 5.03125l-1.40625 0l1.09375 -5.265625q0.171875 -0.765625 0.171875 -1.125q0 -0.421875 -0.296875 -0.671875q-0.28125 -0.265625 -0.8125 -0.265625q-1.09375 0 -1.9375 0.78125q-0.84375 0.78125 -1.25 2.6875l-0.796875 3.859375l-1.421875 0zm14.4921875 -1.203125q-1.203125 1.390625 -2.53125 1.390625q-1.171875 0 -1.96875 -0.875q-0.78125 -0.875 -0.78125 -2.53125q0 -1.515625 0.625 -2.765625q0.625 -1.25 1.546875 -1.875q0.9375 -0.625 1.875 -0.625q1.546875 0 2.34375 1.484375l0.9375 -4.453125l1.40625 0l-2.390625 11.453125l-1.3125 0l0.25 -1.203125zm-3.875 -2.28125q0 0.875 0.171875 1.375q0.171875 0.5 0.578125 0.828125q0.421875 0.328125 1.0 0.328125q0.96875 0 1.75 -1.0q1.046875 -1.328125 1.046875 -3.28125q0 -0.984375 -0.515625 -1.53125q-0.515625 -0.5625 -1.296875 -0.5625q-0.515625 0 -0.9375 0.234375q-0.40625 0.21875 -0.828125 0.765625q-0.40625 0.546875 -0.6875 1.390625q-0.28125 0.828125 -0.28125 1.453125z" fill-rule="nonzero"/><path fill="#000000" d="m763.0862 211.93414l1.4375 0.140625q-0.015625 0.484375 0.109375 0.71875q0.140625 0.25 0.421875 0.375q0.390625 0.171875 1.0 0.171875q1.28125 0 1.84375 -0.65625q0.359375 -0.453125 0.671875 -1.953125l0.140625 -0.671875q-1.09375 1.125 -2.34375 1.125q-1.25 0 -2.109375 -0.921875q-0.84375 -0.9375 -0.84375 -2.625q0 -1.40625 0.671875 -2.578125q0.671875 -1.171875 1.59375 -1.765625q0.921875 -0.59375 1.890625 -0.59375q1.640625 0 2.515625 1.546875l0.28125 -1.359375l1.296875 0l-1.671875 8.0q-0.265625 1.328125 -0.71875 2.0625q-0.4375 0.75 -1.234375 1.15625q-0.796875 0.40625 -1.828125 0.40625q-1.0 0 -1.734375 -0.265625q-0.71875 -0.25 -1.078125 -0.75q-0.34375 -0.5 -0.34375 -1.140625q0 -0.1875 0.03125 -0.421875zm1.765625 -4.421875q0 0.84375 0.171875 1.28125q0.234375 0.59375 0.65625 0.921875q0.4375 0.3125 0.96875 0.3125q0.703125 0 1.390625 -0.484375q0.6875 -0.5 1.109375 -1.515625q0.421875 -1.03125 0.421875 -1.953125q0 -1.03125 -0.5625 -1.625q-0.5625 -0.609375 -1.40625 -0.609375q-0.515625 0 -1.0 0.28125q-0.484375 0.265625 -0.90625 0.84375q-0.40625 0.5625 -0.625 1.359375q-0.21875 0.78125 -0.21875 1.1875zm9.2265625 -6.1875l0.328125 -1.59375l1.40625 0l-0.328125 1.59375l-1.40625 0zm-2.0625 9.859375l1.734375 -8.296875l1.40625 0l-1.734375 8.296875l-1.40625 0zm3.6015625 0l1.734375 -8.296875l1.40625 0l-0.28125 1.359375q0.78125 -0.875 1.40625 -1.203125q0.625 -0.34375 1.34375 -0.34375q0.78125 0 1.296875 0.40625q0.515625 0.40625 0.6875 1.140625q0.625 -0.78125 1.328125 -1.15625q0.703125 -0.390625 1.46875 -0.390625q1.046875 0 1.5625 0.5q0.515625 0.484375 0.515625 1.375q0 0.375 -0.171875 1.265625l-1.125 5.34375l-1.40625 0l1.140625 -5.484375q0.140625 -0.671875 0.140625 -0.96875q0 -0.40625 -0.265625 -0.640625q-0.25 -0.234375 -0.71875 -0.234375q-0.625 0 -1.28125 0.390625q-0.65625 0.375 -1.03125 1.0q-0.359375 0.625 -0.625 1.90625l-0.84375 4.03125l-1.421875 0l1.171875 -5.609375q0.125 -0.5625 0.125 -0.8125q0 -0.40625 -0.25 -0.65625q-0.25 -0.25 -0.65625 -0.25q-0.609375 0 -1.265625 0.390625q-0.65625 0.375 -1.078125 1.0625q-0.40625 0.6875 -0.671875 1.953125l-0.828125 3.921875l-1.40625 0zm13.328125 0l2.390625 -11.453125l1.421875 0l-0.859375 4.09375q0.671875 -0.625 1.21875 -0.875q0.546875 -0.25 1.140625 -0.25q1.171875 0 1.9375 0.875q0.78125 0.859375 0.78125 2.515625q0 1.09375 -0.3125 2.015625q-0.3125 0.90625 -0.78125 1.53125q-0.453125 0.625 -0.953125 1.0q-0.484375 0.359375 -1.0 0.546875q-0.515625 0.1875 -0.984375 0.1875q-0.828125 0 -1.453125 -0.4375q-0.625 -0.4375 -0.96875 -1.328125l-0.328125 1.578125l-1.25 0zm2.09375 -3.40625l0 0.265625q0 1.0625 0.5 1.625q0.515625 0.546875 1.265625 0.546875q0.75 0 1.359375 -0.515625q0.625 -0.53125 1.015625 -1.625q0.40625 -1.109375 0.40625 -2.03125q0 -1.046875 -0.5 -1.625q-0.5 -0.578125 -1.25 -0.578125q-0.765625 0 -1.40625 0.59375q-0.640625 0.578125 -1.0625 1.8125q-0.328125 0.90625 -0.328125 1.53125zm12.3984375 2.375q-0.734375 0.625 -1.421875 0.921875q-0.671875 0.296875 -1.4375 0.296875q-1.15625 0 -1.859375 -0.671875q-0.703125 -0.6875 -0.703125 -1.734375q0 -0.703125 0.3125 -1.234375q0.328125 -0.53125 0.84375 -0.859375q0.53125 -0.328125 1.28125 -0.46875q0.484375 -0.09375 1.8125 -0.140625q1.328125 -0.0625 1.90625 -0.28125q0.171875 -0.578125 0.171875 -0.96875q0 -0.484375 -0.359375 -0.765625q-0.5 -0.390625 -1.4375 -0.390625q-0.890625 0 -1.46875 0.390625q-0.5625 0.390625 -0.8125 1.125l-1.4375 -0.125q0.4375 -1.234375 1.390625 -1.890625q0.953125 -0.65625 2.390625 -0.65625q1.546875 0 2.4375 0.734375q0.6875 0.546875 0.6875 1.421875q0 0.65625 -0.1875 1.53125l-0.46875 2.0625q-0.21875 0.984375 -0.21875 1.609375q0 0.390625 0.171875 1.125l-1.421875 0q-0.125 -0.40625 -0.171875 -1.03125zm0.53125 -3.171875q-0.296875 0.109375 -0.640625 0.171875q-0.34375 0.0625 -1.140625 0.140625q-1.234375 0.109375 -1.75 0.28125q-0.5 0.15625 -0.765625 0.53125q-0.25 0.359375 -0.25 0.8125q0 0.59375 0.40625 0.984375q0.421875 0.375 1.171875 0.375q0.703125 0 1.34375 -0.375q0.65625 -0.375 1.03125 -1.03125q0.375 -0.671875 0.59375 -1.890625zm2.6640625 4.203125l2.390625 -11.453125l1.421875 0l-2.390625 11.453125l-1.421875 0z" fill-rule="nonzero"/><path fill="#000000" fill-opacity="0.0" d="m334.2651 66.81102l115.40155 0l0 77.574814l-115.40155 0z" fill-rule="evenodd"/><path fill="#000000" d="m374.94635 87.13977l1.515625 0.203125q-0.71875 1.984375 -2.09375 3.015625q-1.375 1.015625 -3.09375 1.015625q-2.078125 0 -3.3125 -1.28125q-1.21875 -1.28125 -1.21875 -3.65625q0 -3.09375 1.859375 -5.109375q1.65625 -1.8125 4.125 -1.8125q1.8125 0 2.9375 0.984375q1.140625 0.96875 1.3125 2.625l-1.421875 0.125q-0.234375 -1.234375 -0.9375 -1.84375q-0.703125 -0.625 -1.828125 -0.625q-2.09375 0 -3.390625 1.875q-1.125 1.609375 -1.125 3.8125q0 1.765625 0.859375 2.703125q0.875 0.921875 2.265625 0.921875q1.1875 0 2.140625 -0.765625q0.96875 -0.78125 1.40625 -2.1875zm8.1015625 2.53125q-1.5 1.6875 -3.0625 1.6875q-0.953125 0 -1.546875 -0.546875q-0.59375 -0.5625 -0.59375 -1.359375q0 -0.515625 0.265625 -1.796875l1.0 -4.78125l1.421875 0l-1.109375 5.296875q-0.140625 0.671875 -0.140625 1.03125q0 0.46875 0.28125 0.734375q0.28125 0.265625 0.84375 0.265625q0.59375 0 1.15625 -0.28125q0.5625 -0.296875 0.96875 -0.78125q0.421875 -0.5 0.671875 -1.171875q0.171875 -0.4375 0.40625 -1.515625l0.75 -3.578125l1.40625 0l-1.734375 8.296875l-1.296875 0l0.3125 -1.5zm3.2265625 1.5l1.734375 -8.296875l1.25 0l-0.34375 1.6875q0.640625 -0.953125 1.25 -1.40625q0.609375 -0.46875 1.25 -0.46875q0.421875 0 1.046875 0.296875l-0.578125 1.3125q-0.375 -0.265625 -0.8125 -0.265625q-0.734375 0 -1.515625 0.828125q-0.78125 0.828125 -1.234375 2.984375l-0.703125 3.328125l-1.34375 0zm5.328125 0l1.734375 -8.296875l1.25 0l-0.34375 1.6875q0.640625 -0.953125 1.25 -1.40625q0.609375 -0.46875 1.25 -0.46875q0.421875 0 1.046875 0.296875l-0.578125 1.3125q-0.375 -0.265625 -0.8125 -0.265625q-0.734375 0 -1.515625 0.828125q-0.78125 0.828125 -1.234375 2.984375l-0.703125 3.328125l-1.34375 0zm11.421875 -2.828125l1.375 0.140625q-0.296875 1.03125 -1.359375 1.953125q-1.0625 0.921875 -2.546875 0.921875q-0.921875 0 -1.6875 -0.421875q-0.765625 -0.4375 -1.171875 -1.25q-0.40625 -0.8125 -0.40625 -1.84375q0 -1.359375 0.625 -2.640625q0.640625 -1.28125 1.640625 -1.890625q1.0 -0.625 2.15625 -0.625q1.484375 0 2.375 0.921875q0.890625 0.921875 0.890625 2.515625q0 0.609375 -0.109375 1.25l-6.109375 0q-0.03125 0.234375 -0.03125 0.4375q0 1.15625 0.53125 1.78125q0.53125 0.609375 1.3125 0.609375q0.71875 0 1.421875 -0.46875q0.703125 -0.484375 1.09375 -1.390625zm-4.109375 -2.046875l4.65625 0q0.015625 -0.21875 0.015625 -0.3125q0 -1.0625 -0.53125 -1.625q-0.53125 -0.578125 -1.375 -0.578125q-0.90625 0 -1.65625 0.625q-0.734375 0.625 -1.109375 1.890625zm6.9140625 4.875l1.734375 -8.296875l1.28125 0l-0.296875 1.4375q0.828125 -0.84375 1.546875 -1.234375q0.734375 -0.390625 1.5 -0.390625q1.0 0 1.578125 0.546875q0.578125 0.546875 0.578125 1.453125q0 0.46875 -0.203125 1.453125l-1.0625 5.03125l-1.40625 0l1.09375 -5.265625q0.171875 -0.765625 0.171875 -1.125q0 -0.421875 -0.296875 -0.671875q-0.28125 -0.265625 -0.8125 -0.265625q-1.09375 0 -1.9375 0.78125q-0.84375 0.78125 -1.25 2.6875l-0.796875 3.859375l-1.421875 0zm12.2109375 -1.15625l-0.234375 1.171875q-0.515625 0.125 -0.984375 0.125q-0.84375 0 -1.34375 -0.421875q-0.375 -0.3125 -0.375 -0.84375q0 -0.28125 0.203125 -1.265625l1.0 -4.8125l-1.109375 0l0.21875 -1.09375l1.125 0l0.421875 -2.046875l1.625 -0.96875l-0.640625 3.015625l1.390625 0l-0.234375 1.09375l-1.375 0l-0.96875 4.578125q-0.171875 0.875 -0.171875 1.046875q0 0.25 0.140625 0.390625q0.140625 0.125 0.46875 0.125q0.46875 0 0.84375 -0.09375z" fill-rule="nonzero"/><path fill="#000000" d="m348.64948 113.35852l2.40625 -11.484375l1.3125 0l-0.25 1.15625q0.734375 -0.765625 1.296875 -1.046875q0.578125 -0.296875 1.21875 -0.296875q1.1875 0 1.96875 0.859375q0.78125 0.859375 0.78125 2.46875q0 1.296875 -0.4375 2.375q-0.421875 1.0625 -1.046875 1.71875q-0.625 0.640625 -1.265625 0.953125q-0.640625 0.296875 -1.3125 0.296875q-1.484375 0 -2.3125 -1.515625l-0.9375 4.515625l-1.421875 0zm2.8125 -6.578125q0 0.921875 0.125 1.28125q0.203125 0.515625 0.640625 0.828125q0.453125 0.3125 1.03125 0.3125q1.21875 0 1.96875 -1.375q0.75 -1.375 0.75 -2.796875q0 -1.0625 -0.5 -1.625q-0.5 -0.578125 -1.25 -0.578125q-0.546875 0 -1.015625 0.28125q-0.453125 0.28125 -0.84375 0.859375q-0.390625 0.5625 -0.65625 1.390625q-0.25 0.8125 -0.25 1.421875zm7.0390625 0.234375q0 -2.421875 1.4375 -4.015625q1.171875 -1.3125 3.09375 -1.3125q1.5 0 2.40625 0.9375q0.921875 0.9375 0.921875 2.53125q0 1.421875 -0.578125 2.65625q-0.578125 1.234375 -1.640625 1.890625q-1.0625 0.65625 -2.25 0.65625q-0.96875 0 -1.765625 -0.40625q-0.78125 -0.421875 -1.203125 -1.171875q-0.421875 -0.765625 -0.421875 -1.765625zm1.421875 -0.140625q0 1.171875 0.5625 1.78125q0.5625 0.609375 1.421875 0.609375q0.453125 0 0.890625 -0.1875q0.453125 -0.1875 0.828125 -0.5625q0.390625 -0.375 0.65625 -0.84375q0.28125 -0.484375 0.4375 -1.046875q0.25 -0.765625 0.25 -1.484375q0 -1.125 -0.578125 -1.734375q-0.5625 -0.625 -1.421875 -0.625q-0.65625 0 -1.203125 0.3125q-0.546875 0.3125 -1.0 0.921875q-0.4375 0.609375 -0.640625 1.421875q-0.203125 0.8125 -0.203125 1.4375zm7.3671875 0.453125l1.40625 -0.078125q0 0.609375 0.1875 1.046875q0.1875 0.421875 0.6875 0.703125q0.515625 0.265625 1.1875 0.265625q0.9375 0 1.40625 -0.375q0.46875 -0.375 0.46875 -0.890625q0 -0.359375 -0.28125 -0.6875q-0.296875 -0.328125 -1.421875 -0.8125q-1.109375 -0.484375 -1.421875 -0.671875q-0.53125 -0.328125 -0.796875 -0.75q-0.265625 -0.4375 -0.265625 -1.0q0 -0.984375 0.78125 -1.6875q0.78125 -0.703125 2.1875 -0.703125q1.5625 0 2.375 0.71875q0.828125 0.71875 0.859375 1.90625l-1.390625 0.09375q-0.03125 -0.75 -0.53125 -1.1875q-0.5 -0.4375 -1.40625 -0.4375q-0.734375 0 -1.140625 0.34375q-0.40625 0.328125 -0.40625 0.71875q0 0.390625 0.34375 0.6875q0.234375 0.203125 1.21875 0.625q1.625 0.703125 2.046875 1.109375q0.671875 0.640625 0.671875 1.578125q0 0.609375 -0.390625 1.203125q-0.375 0.59375 -1.15625 0.953125q-0.765625 0.359375 -1.828125 0.359375q-1.4375 0 -2.4375 -0.71875q-1.015625 -0.703125 -0.953125 -2.3125zm9.875 -7.015625l0.328125 -1.59375l1.40625 0l-0.328125 1.59375l-1.40625 0zm-2.0625 9.859375l1.734375 -8.296875l1.40625 0l-1.734375 8.296875l-1.40625 0zm6.9140625 -1.15625l-0.234375 1.171875q-0.515625 0.125 -0.984375 0.125q-0.84375 0 -1.34375 -0.421875q-0.375 -0.3125 -0.375 -0.84375q0 -0.28125 0.203125 -1.265625l1.0 -4.8125l-1.109375 0l0.21875 -1.09375l1.125 0l0.421875 -2.046875l1.625 -0.96875l-0.640625 3.015625l1.390625 0l-0.234375 1.09375l-1.375 0l-0.96875 4.578125q-0.171875 0.875 -0.171875 1.046875q0 0.25 0.140625 0.390625q0.140625 0.125 0.46875 0.125q0.46875 0 0.84375 -0.09375zm3.1484375 -8.703125l0.328125 -1.59375l1.40625 0l-0.328125 1.59375l-1.40625 0zm-2.0625 9.859375l1.734375 -8.296875l1.40625 0l-1.734375 8.296875l-1.40625 0zm3.8515625 -3.15625q0 -2.421875 1.4375 -4.015625q1.171875 -1.3125 3.09375 -1.3125q1.5 0 2.40625 0.9375q0.921875 0.9375 0.921875 2.53125q0 1.421875 -0.578125 2.65625q-0.578125 1.234375 -1.640625 1.890625q-1.0625 0.65625 -2.25 0.65625q-0.96875 0 -1.765625 -0.40625q-0.78125 -0.421875 -1.203125 -1.171875q-0.421875 -0.765625 -0.421875 -1.765625zm1.421875 -0.140625q0 1.171875 0.5625 1.78125q0.5625 0.609375 1.421875 0.609375q0.453125 0 0.890625 -0.1875q0.453125 -0.1875 0.828125 -0.5625q0.390625 -0.375 0.65625 -0.84375q0.28125 -0.484375 0.4375 -1.046875q0.25 -0.765625 0.25 -1.484375q0 -1.125 -0.578125 -1.734375q-0.5625 -0.625 -1.421875 -0.625q-0.65625 0 -1.203125 0.3125q-0.546875 0.3125 -1.0 0.921875q-0.4375 0.609375 -0.640625 1.421875q-0.203125 0.8125 -0.203125 1.4375zm7.2265625 3.296875l1.734375 -8.296875l1.28125 0l-0.296875 1.4375q0.828125 -0.84375 1.546875 -1.234375q0.734375 -0.390625 1.5 -0.390625q1.0 0 1.578125 0.546875q0.578125 0.546875 0.578125 1.453125q0 0.46875 -0.203125 1.453125l-1.0625 5.03125l-1.40625 0l1.09375 -5.265625q0.171875 -0.765625 0.171875 -1.125q0 -0.421875 -0.296875 -0.671875q-0.28125 -0.265625 -0.8125 -0.265625q-1.09375 0 -1.9375 0.78125q-0.84375 0.78125 -1.25 2.6875l-0.796875 3.859375l-1.421875 0zm18.9375 -1.03125q-0.734375 0.625 -1.421875 0.921875q-0.671875 0.296875 -1.4375 0.296875q-1.15625 0 -1.859375 -0.671875q-0.703125 -0.6875 -0.703125 -1.734375q0 -0.703125 0.3125 -1.234375q0.328125 -0.53125 0.84375 -0.859375q0.53125 -0.328125 1.28125 -0.46875q0.484375 -0.09375 1.8125 -0.140625q1.328125 -0.0625 1.90625 -0.28125q0.171875 -0.578125 0.171875 -0.96875q0 -0.484375 -0.359375 -0.765625q-0.5 -0.390625 -1.4375 -0.390625q-0.890625 0 -1.46875 0.390625q-0.5625 0.390625 -0.8125 1.125l-1.4375 -0.125q0.4375 -1.234375 1.390625 -1.890625q0.953125 -0.65625 2.390625 -0.65625q1.546875 0 2.4375 0.734375q0.6875 0.546875 0.6875 1.421875q0 0.65625 -0.1875 1.53125l-0.46875 2.0625q-0.21875 0.984375 -0.21875 1.609375q0 0.390625 0.171875 1.125l-1.421875 0q-0.125 -0.40625 -0.171875 -1.03125zm0.53125 -3.171875q-0.296875 0.109375 -0.640625 0.171875q-0.34375 0.0625 -1.140625 0.140625q-1.234375 0.109375 -1.75 0.28125q-0.5 0.15625 -0.765625 0.53125q-0.25 0.359375 -0.25 0.8125q0 0.59375 0.40625 0.984375q0.421875 0.375 1.171875 0.375q0.703125 0 1.34375 -0.375q0.65625 -0.375 1.03125 -1.03125q0.375 -0.671875 0.59375 -1.890625zm2.7734375 4.203125l1.734375 -8.296875l1.28125 0l-0.296875 1.4375q0.828125 -0.84375 1.546875 -1.234375q0.734375 -0.390625 1.5 -0.390625q1.0 0 1.578125 0.546875q0.578125 0.546875 0.578125 1.453125q0 0.46875 -0.203125 1.453125l-1.0625 5.03125l-1.40625 0l1.09375 -5.265625q0.171875 -0.765625 0.171875 -1.125q0 -0.421875 -0.296875 -0.671875q-0.28125 -0.265625 -0.8125 -0.265625q-1.09375 0 -1.9375 0.78125q-0.84375 0.78125 -1.25 2.6875l-0.796875 3.859375l-1.421875 0zm14.4921875 -1.203125q-1.203125 1.390625 -2.53125 1.390625q-1.171875 0 -1.96875 -0.875q-0.78125 -0.875 -0.78125 -2.53125q0 -1.515625 0.625 -2.765625q0.625 -1.25 1.546875 -1.875q0.9375 -0.625 1.875 -0.625q1.546875 0 2.34375 1.484375l0.9375 -4.453125l1.40625 0l-2.390625 11.453125l-1.3125 0l0.25 -1.203125zm-3.875 -2.28125q0 0.875 0.171875 1.375q0.171875 0.5 0.578125 0.828125q0.421875 0.328125 1.0 0.328125q0.96875 0 1.75 -1.0q1.046875 -1.328125 1.046875 -3.28125q0 -0.984375 -0.515625 -1.53125q-0.515625 -0.5625 -1.296875 -0.5625q-0.515625 0 -0.9375 0.234375q-0.40625 0.21875 -0.828125 0.765625q-0.40625 0.546875 -0.6875 1.390625q-0.28125 0.828125 -0.28125 1.453125z" fill-rule="nonzero"/><path fill="#000000" d="m367.9151 129.17102l-1.359375 -8.296875l1.375 0l0.71875 4.5625q0.109375 0.75 0.28125 2.453125q0.40625 -0.890625 1.046875 -2.03125l2.765625 -4.984375l1.5 0l-4.75 8.296875l-1.578125 0zm12.0 -2.828125l1.375 0.140625q-0.296875 1.03125 -1.359375 1.953125q-1.0625 0.921875 -2.546875 0.921875q-0.921875 0 -1.6875 -0.421875q-0.765625 -0.4375 -1.171875 -1.25q-0.40625 -0.8125 -0.40625 -1.84375q0 -1.359375 0.625 -2.640625q0.640625 -1.28125 1.640625 -1.890625q1.0 -0.625 2.15625 -0.625q1.484375 0 2.375 0.921875q0.890625 0.921875 0.890625 2.515625q0 0.609375 -0.109375 1.25l-6.109375 0q-0.03125 0.234375 -0.03125 0.4375q0 1.15625 0.53125 1.78125q0.53125 0.609375 1.3125 0.609375q0.71875 0 1.421875 -0.46875q0.703125 -0.484375 1.09375 -1.390625zm-4.109375 -2.046875l4.65625 0q0.015625 -0.21875 0.015625 -0.3125q0 -1.0625 -0.53125 -1.625q-0.53125 -0.578125 -1.375 -0.578125q-0.90625 0 -1.65625 0.625q-0.734375 0.625 -1.109375 1.890625zm6.8046875 4.875l2.390625 -11.453125l1.421875 0l-2.390625 11.453125l-1.421875 0zm3.9140625 -3.15625q0 -2.421875 1.4375 -4.015625q1.171875 -1.3125 3.09375 -1.3125q1.5 0 2.40625 0.9375q0.921875 0.9375 0.921875 2.53125q0 1.421875 -0.578125 2.65625q-0.578125 1.234375 -1.640625 1.890625q-1.0625 0.65625 -2.25 0.65625q-0.96875 0 -1.765625 -0.40625q-0.78125 -0.421875 -1.203125 -1.171875q-0.421875 -0.765625 -0.421875 -1.765625zm1.421875 -0.140625q0 1.171875 0.5625 1.78125q0.5625 0.609375 1.421875 0.609375q0.453125 0 0.890625 -0.1875q0.453125 -0.1875 0.828125 -0.5625q0.390625 -0.375 0.65625 -0.84375q0.28125 -0.484375 0.4375 -1.046875q0.25 -0.765625 0.25 -1.484375q0 -1.125 -0.578125 -1.734375q-0.5625 -0.625 -1.421875 -0.625q-0.65625 0 -1.203125 0.3125q-0.546875 0.3125 -1.0 0.921875q-0.4375 0.609375 -0.640625 1.421875q-0.203125 0.8125 -0.203125 1.4375zm12.9609375 0.265625l1.40625 0.15625q-0.53125 1.546875 -1.515625 2.3125q-0.96875 0.75 -2.21875 0.75q-1.359375 0 -2.203125 -0.875q-0.828125 -0.875 -0.828125 -2.453125q0 -1.359375 0.53125 -2.671875q0.546875 -1.3125 1.546875 -1.984375q1.0 -0.6875 2.296875 -0.6875q1.328125 0 2.109375 0.75q0.78125 0.75 0.78125 2.0l-1.390625 0.09375q0 -0.796875 -0.453125 -1.234375q-0.453125 -0.453125 -1.1875 -0.453125q-0.84375 0 -1.46875 0.546875q-0.625 0.53125 -0.984375 1.640625q-0.359375 1.09375 -0.359375 2.109375q0 1.0625 0.46875 1.59375q0.46875 0.53125 1.15625 0.53125q0.6875 0 1.3125 -0.515625q0.640625 -0.53125 1.0 -1.609375zm4.28125 -6.828125l0.328125 -1.59375l1.40625 0l-0.328125 1.59375l-1.40625 0zm-2.0625 9.859375l1.734375 -8.296875l1.40625 0l-1.734375 8.296875l-1.40625 0zm6.9140625 -1.15625l-0.234375 1.171875q-0.515625 0.125 -0.984375 0.125q-0.84375 0 -1.34375 -0.421875q-0.375 -0.3125 -0.375 -0.84375q0 -0.28125 0.203125 -1.265625l1.0 -4.8125l-1.109375 0l0.21875 -1.09375l1.125 0l0.421875 -2.046875l1.625 -0.96875l-0.640625 3.015625l1.390625 0l-0.234375 1.09375l-1.375 0l-0.96875 4.578125q-0.171875 0.875 -0.171875 1.046875q0 0.25 0.140625 0.390625q0.140625 0.125 0.46875 0.125q0.46875 0 0.84375 -0.09375zm0.6015625 4.359375l0.09375 -1.328125q0.4375 0.125 0.84375 0.125q0.4375 0 0.703125 -0.1875q0.34375 -0.265625 0.75 -0.96875l0.453125 -0.8125l-1.390625 -8.328125l1.390625 0l0.625 4.1875q0.1875 1.25 0.328125 2.484375l3.703125 -6.671875l1.484375 0l-5.296875 9.40625q-0.765625 1.375 -1.359375 1.8125q-0.59375 0.453125 -1.359375 0.453125q-0.5 0 -0.96875 -0.171875z" fill-rule="nonzero"/><path fill="#000000" fill-opacity="0.0" d="m583.8583 23.606298l115.40155 0l0 77.5748l-115.40155 0z" fill-rule="evenodd"/><path fill="#000000" d="m622.813 47.9663l2.109375 -10.15625l-3.75 0l0.265625 -1.296875l9.015625 0l-0.265625 1.296875l-3.734375 0l-2.109375 10.15625l-1.53125 0zm10.7890625 -1.03125q-0.734375 0.625 -1.421875 0.921875q-0.671875 0.296875 -1.4375 0.296875q-1.15625 0 -1.859375 -0.671875q-0.703125 -0.6875 -0.703125 -1.734375q0 -0.703125 0.3125 -1.234375q0.328125 -0.53125 0.84375 -0.859375q0.53125 -0.328125 1.28125 -0.46875q0.484375 -0.09375 1.8125 -0.140625q1.328125 -0.0625 1.90625 -0.28125q0.171875 -0.578125 0.171875 -0.96875q0 -0.484375 -0.359375 -0.765625q-0.5 -0.390625 -1.4375 -0.390625q-0.890625 0 -1.46875 0.390625q-0.5625 0.390625 -0.8125 1.125l-1.4375 -0.125q0.4375 -1.234375 1.390625 -1.890625q0.953125 -0.65625 2.390625 -0.65625q1.546875 0 2.4375 0.734375q0.6875 0.546875 0.6875 1.421875q0 0.65625 -0.1875 1.53125l-0.46875 2.0625q-0.21875 0.984375 -0.21875 1.609375q0 0.390625 0.171875 1.125l-1.421875 0q-0.125 -0.40625 -0.171875 -1.03125zm0.53125 -3.171875q-0.296875 0.109375 -0.640625 0.171875q-0.34375 0.0625 -1.140625 0.140625q-1.234375 0.109375 -1.75 0.28125q-0.5 0.15625 -0.765625 0.53125q-0.25 0.359375 -0.25 0.8125q0 0.59375 0.40625 0.984375q0.421875 0.375 1.171875 0.375q0.703125 0 1.34375 -0.375q0.65625 -0.375 1.03125 -1.03125q0.375 -0.671875 0.59375 -1.890625zm2.7734375 4.203125l1.734375 -8.296875l1.25 0l-0.34375 1.6875q0.640625 -0.953125 1.25 -1.40625q0.609375 -0.46875 1.25 -0.46875q0.421875 0 1.046875 0.296875l-0.578125 1.3125q-0.375 -0.265625 -0.8125 -0.265625q-0.734375 0 -1.515625 0.828125q-0.78125 0.828125 -1.234375 2.984375l-0.703125 3.328125l-1.34375 0zm5.25 0.75l1.4375 0.140625q-0.015625 0.484375 0.109375 0.71875q0.140625 0.25 0.421875 0.375q0.390625 0.171875 1.0 0.171875q1.28125 0 1.84375 -0.65625q0.359375 -0.453125 0.671875 -1.953125l0.140625 -0.671875q-1.09375 1.125 -2.34375 1.125q-1.25 0 -2.109375 -0.921875q-0.84375 -0.9375 -0.84375 -2.625q0 -1.40625 0.671875 -2.578125q0.671875 -1.171875 1.59375 -1.765625q0.921875 -0.59375 1.890625 -0.59375q1.640625 0 2.515625 1.546875l0.28125 -1.359375l1.296875 0l-1.671875 8.0q-0.265625 1.328125 -0.71875 2.0625q-0.4375 0.75 -1.234375 1.15625q-0.796875 0.40625 -1.828125 0.40625q-1.0 0 -1.734375 -0.265625q-0.71875 -0.25 -1.078125 -0.75q-0.34375 -0.5 -0.34375 -1.140625q0 -0.1875 0.03125 -0.421875zm1.765625 -4.421875q0 0.84375 0.171875 1.28125q0.234375 0.59375 0.65625 0.921875q0.4375 0.3125 0.96875 0.3125q0.703125 0 1.390625 -0.484375q0.6875 -0.5 1.109375 -1.515625q0.421875 -1.03125 0.421875 -1.953125q0 -1.03125 -0.5625 -1.625q-0.5625 -0.609375 -1.40625 -0.609375q-0.515625 0 -1.0 0.28125q-0.484375 0.265625 -0.90625 0.84375q-0.40625 0.5625 -0.625 1.359375q-0.21875 0.78125 -0.21875 1.1875zm13.3046875 0.84375l1.375 0.140625q-0.296875 1.03125 -1.359375 1.953125q-1.0625 0.921875 -2.546875 0.921875q-0.921875 0 -1.6875 -0.421875q-0.765625 -0.4375 -1.171875 -1.25q-0.40625 -0.8125 -0.40625 -1.84375q0 -1.359375 0.625 -2.640625q0.640625 -1.28125 1.640625 -1.890625q1.0 -0.625 2.15625 -0.625q1.484375 0 2.375 0.921875q0.890625 0.921875 0.890625 2.515625q0 0.609375 -0.109375 1.25l-6.109375 0q-0.03125 0.234375 -0.03125 0.4375q0 1.15625 0.53125 1.78125q0.53125 0.609375 1.3125 0.609375q0.71875 0 1.421875 -0.46875q0.703125 -0.484375 1.09375 -1.390625zm-4.109375 -2.046875l4.65625 0q0.015625 -0.21875 0.015625 -0.3125q0 -1.0625 -0.53125 -1.625q-0.53125 -0.578125 -1.375 -0.578125q-0.90625 0 -1.65625 0.625q-0.734375 0.625 -1.109375 1.890625zm10.2265625 3.71875l-0.234375 1.171875q-0.515625 0.125 -0.984375 0.125q-0.84375 0 -1.34375 -0.421875q-0.375 -0.3125 -0.375 -0.84375q0 -0.28125 0.203125 -1.265625l1.0 -4.8125l-1.109375 0l0.21875 -1.09375l1.125 0l0.421875 -2.046875l1.625 -0.96875l-0.640625 3.015625l1.390625 0l-0.234375 1.09375l-1.375 0l-0.96875 4.578125q-0.171875 0.875 -0.171875 1.046875q0 0.25 0.140625 0.390625q0.140625 0.125 0.46875 0.125q0.46875 0 0.84375 -0.09375z" fill-rule="nonzero"/><path fill="#000000" d="m598.2427 70.1538l2.40625 -11.484375l1.3125 0l-0.25 1.15625q0.734375 -0.765625 1.296875 -1.046875q0.578125 -0.296875 1.21875 -0.296875q1.1875 0 1.96875 0.859375q0.78125 0.859375 0.78125 2.46875q0 1.296875 -0.4375 2.375q-0.421875 1.0625 -1.046875 1.71875q-0.625 0.640625 -1.265625 0.953125q-0.640625 0.296875 -1.3125 0.296875q-1.484375 0 -2.3125 -1.515625l-0.9375 4.515625l-1.421875 0zm2.8125 -6.578125q0 0.921875 0.125 1.28125q0.203125 0.515625 0.640625 0.828125q0.453125 0.3125 1.03125 0.3125q1.21875 0 1.96875 -1.375q0.75 -1.375 0.75 -2.796875q0 -1.0625 -0.5 -1.625q-0.5 -0.578125 -1.25 -0.578125q-0.546875 0 -1.015625 0.28125q-0.453125 0.28125 -0.84375 0.859375q-0.390625 0.5625 -0.65625 1.390625q-0.25 0.8125 -0.25 1.421875zm7.0390625 0.234375q0 -2.421875 1.4375 -4.015625q1.171875 -1.3125 3.09375 -1.3125q1.5 0 2.40625 0.9375q0.921875 0.9375 0.921875 2.53125q0 1.421875 -0.578125 2.65625q-0.578125 1.234375 -1.640625 1.890625q-1.0625 0.65625 -2.25 0.65625q-0.96875 0 -1.765625 -0.40625q-0.78125 -0.421875 -1.203125 -1.171875q-0.421875 -0.765625 -0.421875 -1.765625zm1.421875 -0.140625q0 1.171875 0.5625 1.78125q0.5625 0.609375 1.421875 0.609375q0.453125 0 0.890625 -0.1875q0.453125 -0.1875 0.828125 -0.5625q0.390625 -0.375 0.65625 -0.84375q0.28125 -0.484375 0.4375 -1.046875q0.25 -0.765625 0.25 -1.484375q0 -1.125 -0.578125 -1.734375q-0.5625 -0.625 -1.421875 -0.625q-0.65625 0 -1.203125 0.3125q-0.546875 0.3125 -1.0 0.921875q-0.4375 0.609375 -0.640625 1.421875q-0.203125 0.8125 -0.203125 1.4375zm7.3671875 0.453125l1.40625 -0.078125q0 0.609375 0.1875 1.046875q0.1875 0.421875 0.6875 0.703125q0.515625 0.265625 1.1875 0.265625q0.9375 0 1.40625 -0.375q0.46875 -0.375 0.46875 -0.890625q0 -0.359375 -0.28125 -0.6875q-0.296875 -0.328125 -1.421875 -0.8125q-1.109375 -0.484375 -1.421875 -0.671875q-0.53125 -0.328125 -0.796875 -0.75q-0.265625 -0.4375 -0.265625 -1.0q0 -0.984375 0.78125 -1.6875q0.78125 -0.703125 2.1875 -0.703125q1.5625 0 2.375 0.71875q0.828125 0.71875 0.859375 1.90625l-1.390625 0.09375q-0.03125 -0.75 -0.53125 -1.1875q-0.5 -0.4375 -1.40625 -0.4375q-0.734375 0 -1.140625 0.34375q-0.40625 0.328125 -0.40625 0.71875q0 0.390625 0.34375 0.6875q0.234375 0.203125 1.21875 0.625q1.625 0.703125 2.046875 1.109375q0.671875 0.640625 0.671875 1.578125q0 0.609375 -0.390625 1.203125q-0.375 0.59375 -1.15625 0.953125q-0.765625 0.359375 -1.828125 0.359375q-1.4375 0 -2.4375 -0.71875q-1.015625 -0.703125 -0.953125 -2.3125zm9.875 -7.015625l0.328125 -1.59375l1.40625 0l-0.328125 1.59375l-1.40625 0zm-2.0625 9.859375l1.734375 -8.296875l1.40625 0l-1.734375 8.296875l-1.40625 0zm6.9140625 -1.15625l-0.234375 1.171875q-0.515625 0.125 -0.984375 0.125q-0.84375 0 -1.34375 -0.421875q-0.375 -0.3125 -0.375 -0.84375q0 -0.28125 0.203125 -1.265625l1.0 -4.8125l-1.109375 0l0.21875 -1.09375l1.125 0l0.421875 -2.046875l1.625 -0.96875l-0.640625 3.015625l1.390625 0l-0.234375 1.09375l-1.375 0l-0.96875 4.578125q-0.171875 0.875 -0.171875 1.046875q0 0.25 0.140625 0.390625q0.140625 0.125 0.46875 0.125q0.46875 0 0.84375 -0.09375zm3.1484375 -8.703125l0.328125 -1.59375l1.40625 0l-0.328125 1.59375l-1.40625 0zm-2.0625 9.859375l1.734375 -8.296875l1.40625 0l-1.734375 8.296875l-1.40625 0zm3.8515625 -3.15625q0 -2.421875 1.4375 -4.015625q1.171875 -1.3125 3.09375 -1.3125q1.5 0 2.40625 0.9375q0.921875 0.9375 0.921875 2.53125q0 1.421875 -0.578125 2.65625q-0.578125 1.234375 -1.640625 1.890625q-1.0625 0.65625 -2.25 0.65625q-0.96875 0 -1.765625 -0.40625q-0.78125 -0.421875 -1.203125 -1.171875q-0.421875 -0.765625 -0.421875 -1.765625zm1.421875 -0.140625q0 1.171875 0.5625 1.78125q0.5625 0.609375 1.421875 0.609375q0.453125 0 0.890625 -0.1875q0.453125 -0.1875 0.828125 -0.5625q0.390625 -0.375 0.65625 -0.84375q0.28125 -0.484375 0.4375 -1.046875q0.25 -0.765625 0.25 -1.484375q0 -1.125 -0.578125 -1.734375q-0.5625 -0.625 -1.421875 -0.625q-0.65625 0 -1.203125 0.3125q-0.546875 0.3125 -1.0 0.921875q-0.4375 0.609375 -0.640625 1.421875q-0.203125 0.8125 -0.203125 1.4375zm7.2265625 3.296875l1.734375 -8.296875l1.28125 0l-0.296875 1.4375q0.828125 -0.84375 1.546875 -1.234375q0.734375 -0.390625 1.5 -0.390625q1.0 0 1.578125 0.546875q0.578125 0.546875 0.578125 1.453125q0 0.46875 -0.203125 1.453125l-1.0625 5.03125l-1.40625 0l1.09375 -5.265625q0.171875 -0.765625 0.171875 -1.125q0 -0.421875 -0.296875 -0.671875q-0.28125 -0.265625 -0.8125 -0.265625q-1.09375 0 -1.9375 0.78125q-0.84375 0.78125 -1.25 2.6875l-0.796875 3.859375l-1.421875 0zm18.9375 -1.03125q-0.734375 0.625 -1.421875 0.921875q-0.671875 0.296875 -1.4375 0.296875q-1.15625 0 -1.859375 -0.671875q-0.703125 -0.6875 -0.703125 -1.734375q0 -0.703125 0.3125 -1.234375q0.328125 -0.53125 0.84375 -0.859375q0.53125 -0.328125 1.28125 -0.46875q0.484375 -0.09375 1.8125 -0.140625q1.328125 -0.0625 1.90625 -0.28125q0.171875 -0.578125 0.171875 -0.96875q0 -0.484375 -0.359375 -0.765625q-0.5 -0.390625 -1.4375 -0.390625q-0.890625 0 -1.46875 0.390625q-0.5625 0.390625 -0.8125 1.125l-1.4375 -0.125q0.4375 -1.234375 1.390625 -1.890625q0.953125 -0.65625 2.390625 -0.65625q1.546875 0 2.4375 0.734375q0.6875 0.546875 0.6875 1.421875q0 0.65625 -0.1875 1.53125l-0.46875 2.0625q-0.21875 0.984375 -0.21875 1.609375q0 0.390625 0.171875 1.125l-1.421875 0q-0.125 -0.40625 -0.171875 -1.03125zm0.53125 -3.171875q-0.296875 0.109375 -0.640625 0.171875q-0.34375 0.0625 -1.140625 0.140625q-1.234375 0.109375 -1.75 0.28125q-0.5 0.15625 -0.765625 0.53125q-0.25 0.359375 -0.25 0.8125q0 0.59375 0.40625 0.984375q0.421875 0.375 1.171875 0.375q0.703125 0 1.34375 -0.375q0.65625 -0.375 1.03125 -1.03125q0.375 -0.671875 0.59375 -1.890625zm2.7734375 4.203125l1.734375 -8.296875l1.28125 0l-0.296875 1.4375q0.828125 -0.84375 1.546875 -1.234375q0.734375 -0.390625 1.5 -0.390625q1.0 0 1.578125 0.546875q0.578125 0.546875 0.578125 1.453125q0 0.46875 -0.203125 1.453125l-1.0625 5.03125l-1.40625 0l1.09375 -5.265625q0.171875 -0.765625 0.171875 -1.125q0 -0.421875 -0.296875 -0.671875q-0.28125 -0.265625 -0.8125 -0.265625q-1.09375 0 -1.9375 0.78125q-0.84375 0.78125 -1.25 2.6875l-0.796875 3.859375l-1.421875 0zm14.4921875 -1.203125q-1.203125 1.390625 -2.53125 1.390625q-1.171875 0 -1.96875 -0.875q-0.78125 -0.875 -0.78125 -2.53125q0 -1.515625 0.625 -2.765625q0.625 -1.25 1.546875 -1.875q0.9375 -0.625 1.875 -0.625q1.546875 0 2.34375 1.484375l0.9375 -4.453125l1.40625 0l-2.390625 11.453125l-1.3125 0l0.25 -1.203125zm-3.875 -2.28125q0 0.875 0.171875 1.375q0.171875 0.5 0.578125 0.828125q0.421875 0.328125 1.0 0.328125q0.96875 0 1.75 -1.0q1.046875 -1.328125 1.046875 -3.28125q0 -0.984375 -0.515625 -1.53125q-0.515625 -0.5625 -1.296875 -0.5625q-0.515625 0 -0.9375 0.234375q-0.40625 0.21875 -0.828125 0.765625q-0.40625 0.546875 -0.6875 1.390625q-0.28125 0.828125 -0.28125 1.453125z" fill-rule="nonzero"/><path fill="#000000" d="m617.5083 85.9663l-1.359375 -8.296875l1.375 0l0.71875 4.5625q0.109375 0.75 0.28125 2.453125q0.40625 -0.890625 1.046875 -2.03125l2.765625 -4.984375l1.5 0l-4.75 8.296875l-1.578125 0zm12.0 -2.828125l1.375 0.140625q-0.296875 1.03125 -1.359375 1.953125q-1.0625 0.921875 -2.546875 0.921875q-0.921875 0 -1.6875 -0.421875q-0.765625 -0.4375 -1.171875 -1.25q-0.40625 -0.8125 -0.40625 -1.84375q0 -1.359375 0.625 -2.640625q0.640625 -1.28125 1.640625 -1.890625q1.0 -0.625 2.15625 -0.625q1.484375 0 2.375 0.921875q0.890625 0.921875 0.890625 2.515625q0 0.609375 -0.109375 1.25l-6.109375 0q-0.03125 0.234375 -0.03125 0.4375q0 1.15625 0.53125 1.78125q0.53125 0.609375 1.3125 0.609375q0.71875 0 1.421875 -0.46875q0.703125 -0.484375 1.09375 -1.390625zm-4.109375 -2.046875l4.65625 0q0.015625 -0.21875 0.015625 -0.3125q0 -1.0625 -0.53125 -1.625q-0.53125 -0.578125 -1.375 -0.578125q-0.90625 0 -1.65625 0.625q-0.734375 0.625 -1.109375 1.890625zm6.8046875 4.875l2.390625 -11.453125l1.421875 0l-2.390625 11.453125l-1.421875 0zm3.9140625 -3.15625q0 -2.421875 1.4375 -4.015625q1.171875 -1.3125 3.09375 -1.3125q1.5 0 2.40625 0.9375q0.921875 0.9375 0.921875 2.53125q0 1.421875 -0.578125 2.65625q-0.578125 1.234375 -1.640625 1.890625q-1.0625 0.65625 -2.25 0.65625q-0.96875 0 -1.765625 -0.40625q-0.78125 -0.421875 -1.203125 -1.171875q-0.421875 -0.765625 -0.421875 -1.765625zm1.421875 -0.140625q0 1.171875 0.5625 1.78125q0.5625 0.609375 1.421875 0.609375q0.453125 0 0.890625 -0.1875q0.453125 -0.1875 0.828125 -0.5625q0.390625 -0.375 0.65625 -0.84375q0.28125 -0.484375 0.4375 -1.046875q0.25 -0.765625 0.25 -1.484375q0 -1.125 -0.578125 -1.734375q-0.5625 -0.625 -1.421875 -0.625q-0.65625 0 -1.203125 0.3125q-0.546875 0.3125 -1.0 0.921875q-0.4375 0.609375 -0.640625 1.421875q-0.203125 0.8125 -0.203125 1.4375zm12.9609375 0.265625l1.40625 0.15625q-0.53125 1.546875 -1.515625 2.3125q-0.96875 0.75 -2.21875 0.75q-1.359375 0 -2.203125 -0.875q-0.828125 -0.875 -0.828125 -2.453125q0 -1.359375 0.53125 -2.671875q0.546875 -1.3125 1.546875 -1.984375q1.0 -0.6875 2.296875 -0.6875q1.328125 0 2.109375 0.75q0.78125 0.75 0.78125 2.0l-1.390625 0.09375q0 -0.796875 -0.453125 -1.234375q-0.453125 -0.453125 -1.1875 -0.453125q-0.84375 0 -1.46875 0.546875q-0.625 0.53125 -0.984375 1.640625q-0.359375 1.09375 -0.359375 2.109375q0 1.0625 0.46875 1.59375q0.46875 0.53125 1.15625 0.53125q0.6875 0 1.3125 -0.515625q0.640625 -0.53125 1.0 -1.609375zm4.28125 -6.828125l0.328125 -1.59375l1.40625 0l-0.328125 1.59375l-1.40625 0zm-2.0625 9.859375l1.734375 -8.296875l1.40625 0l-1.734375 8.296875l-1.40625 0zm6.9140625 -1.15625l-0.234375 1.171875q-0.515625 0.125 -0.984375 0.125q-0.84375 0 -1.34375 -0.421875q-0.375 -0.3125 -0.375 -0.84375q0 -0.28125 0.203125 -1.265625l1.0 -4.8125l-1.109375 0l0.21875 -1.09375l1.125 0l0.421875 -2.046875l1.625 -0.96875l-0.640625 3.015625l1.390625 0l-0.234375 1.09375l-1.375 0l-0.96875 4.578125q-0.171875 0.875 -0.171875 1.046875q0 0.25 0.140625 0.390625q0.140625 0.125 0.46875 0.125q0.46875 0 0.84375 -0.09375zm0.6015625 4.359375l0.09375 -1.328125q0.4375 0.125 0.84375 0.125q0.4375 0 0.703125 -0.1875q0.34375 -0.265625 0.75 -0.96875l0.453125 -0.8125l-1.390625 -8.328125l1.390625 0l0.625 4.1875q0.1875 1.25 0.328125 2.484375l3.703125 -6.671875l1.484375 0l-5.296875 9.40625q-0.765625 1.375 -1.359375 1.8125q-0.59375 0.453125 -1.359375 0.453125q-0.5 0 -0.96875 -0.171875z" fill-rule="nonzero"/><path fill="#cfe2f3" d="m368.05905 365.5567l0 0c0 -7.578491 6.143585 -13.722046 13.722076 -13.722046l101.437744 0c3.6393433 0 7.1295776 1.4457092 9.702972 4.0190735c2.5733948 2.5733948 4.019104 6.0636597 4.019104 9.702972l0 54.886597c0 7.578491 -6.143585 13.722046 -13.722076 13.722046l-101.437744 0c-7.578491 0 -13.722076 -6.1435547 -13.722076 -13.722046z" fill-rule="evenodd"/><path stroke="#000000" stroke-width="1.0" stroke-linejoin="round" stroke-linecap="butt" d="m368.05905 365.5567l0 0c0 -7.578491 6.143585 -13.722046 13.722076 -13.722046l101.437744 0c3.6393433 0 7.1295776 1.4457092 9.702972 4.0190735c2.5733948 2.5733948 4.019104 6.0636597 4.019104 9.702972l0 54.886597c0 7.578491 -6.143585 13.722046 -13.722076 13.722046l-101.437744 0c-7.578491 0 -13.722076 -6.1435547 -13.722076 -13.722046z" fill-rule="evenodd"/><path fill="#000000" d="m393.94516 373.62314l1.65625 -0.140625q0.125 1.0 0.546875 1.640625q0.4375 0.640625 1.34375 1.046875q0.921875 0.390625 2.0625 0.390625q1.0 0 1.78125 -0.296875q0.78125 -0.296875 1.15625 -0.8125q0.375 -0.53125 0.375 -1.15625q0 -0.625 -0.375 -1.09375q-0.359375 -0.46875 -1.1875 -0.796875q-0.546875 -0.203125 -2.390625 -0.640625q-1.828125 -0.453125 -2.5625 -0.84375q-0.96875 -0.5 -1.4375 -1.234375q-0.46875 -0.75 -0.46875 -1.671875q0 -1.0 0.578125 -1.875q0.578125 -0.890625 1.671875 -1.34375q1.109375 -0.453125 2.453125 -0.453125q1.484375 0 2.609375 0.484375q1.140625 0.46875 1.75 1.40625q0.609375 0.921875 0.65625 2.09375l-1.6875 0.125q-0.140625 -1.265625 -0.9375 -1.90625q-0.78125 -0.65625 -2.3125 -0.65625q-1.609375 0 -2.34375 0.59375q-0.734375 0.59375 -0.734375 1.421875q0 0.71875 0.53125 1.171875q0.5 0.46875 2.65625 0.96875q2.15625 0.484375 2.953125 0.84375q1.171875 0.53125 1.71875 1.359375q0.5625 0.828125 0.5625 1.90625q0 1.0625 -0.609375 2.015625q-0.609375 0.9375 -1.75 1.46875q-1.140625 0.515625 -2.578125 0.515625q-1.8125 0 -3.046875 -0.53125q-1.21875 -0.53125 -1.921875 -1.59375q-0.6875 -1.0625 -0.71875 -2.40625zm12.834198 -7.171875l0 -1.890625l1.640625 0l0 1.890625l-1.640625 0zm0 11.46875l0 -9.671875l1.640625 0l0 9.671875l-1.640625 0zm4.1448364 0l0 -9.671875l1.46875 0l0 1.359375q0.453125 -0.71875 1.203125 -1.140625q0.765625 -0.4375 1.71875 -0.4375q1.078125 0 1.765625 0.453125q0.6875 0.4375 0.96875 1.234375q1.15625 -1.6875 2.984375 -1.6875q1.453125 0 2.21875 0.796875q0.78125 0.796875 0.78125 2.453125l0 6.640625l-1.640625 0l0 -6.09375q0 -0.984375 -0.15625 -1.40625q-0.15625 -0.4375 -0.578125 -0.703125q-0.421875 -0.265625 -0.984375 -0.265625q-1.015625 0 -1.6875 0.6875q-0.671875 0.671875 -0.671875 2.15625l0 5.625l-1.640625 0l0 -6.28125q0 -1.09375 -0.40625 -1.640625q-0.40625 -0.546875 -1.3125 -0.546875q-0.6875 0 -1.28125 0.359375q-0.59375 0.359375 -0.859375 1.0625q-0.25 0.703125 -0.25 2.03125l0 5.015625l-1.640625 0zm21.868927 0l0 -1.421875q-1.125 1.640625 -3.0625 1.640625q-0.859375 0 -1.609375 -0.328125q-0.734375 -0.328125 -1.09375 -0.828125q-0.359375 -0.5 -0.5 -1.21875q-0.109375 -0.46875 -0.109375 -1.53125l0 -5.984375l1.640625 0l0 5.359375q0 1.28125 0.109375 1.734375q0.15625 0.640625 0.65625 1.015625q0.5 0.375 1.234375 0.375q0.734375 0 1.375 -0.375q0.65625 -0.390625 0.921875 -1.03125q0.265625 -0.65625 0.265625 -1.890625l0 -5.1875l1.640625 0l0 9.671875l-1.46875 0zm4.000702 0l0 -13.359375l1.640625 0l0 13.359375l-1.640625 0zm10.504211 -1.1875q-0.921875 0.765625 -1.765625 1.09375q-0.828125 0.3125 -1.796875 0.3125q-1.59375 0 -2.453125 -0.78125q-0.859375 -0.78125 -0.859375 -1.984375q0 -0.71875 0.328125 -1.296875q0.328125 -0.59375 0.84375 -0.9375q0.53125 -0.359375 1.1875 -0.546875q0.46875 -0.125 1.453125 -0.25q1.984375 -0.234375 2.921875 -0.5625q0.015625 -0.34375 0.015625 -0.421875q0 -1.0 -0.46875 -1.421875q-0.625 -0.546875 -1.875 -0.546875q-1.15625 0 -1.703125 0.40625q-0.546875 0.40625 -0.8125 1.421875l-1.609375 -0.21875q0.21875 -1.015625 0.71875 -1.640625q0.5 -0.640625 1.453125 -0.984375q0.953125 -0.34375 2.1875 -0.34375q1.25 0 2.015625 0.296875q0.78125 0.28125 1.140625 0.734375q0.375 0.4375 0.515625 1.109375q0.078125 0.421875 0.078125 1.515625l0 2.1875q0 2.28125 0.109375 2.890625q0.109375 0.59375 0.40625 1.15625l-1.703125 0q-0.265625 -0.515625 -0.328125 -1.1875zm-0.140625 -3.671875q-0.890625 0.375 -2.671875 0.625q-1.015625 0.140625 -1.4375 0.328125q-0.421875 0.1875 -0.65625 0.53125q-0.21875 0.34375 -0.21875 0.78125q0 0.65625 0.5 1.09375q0.5 0.4375 1.453125 0.4375q0.9375 0 1.671875 -0.40625q0.75 -0.421875 1.09375 -1.140625q0.265625 -0.5625 0.265625 -1.640625l0 -0.609375zm7.781952 3.390625l0.234375 1.453125q-0.6875 0.140625 -1.234375 0.140625q-0.890625 0 -1.390625 -0.28125q-0.484375 -0.28125 -0.6875 -0.734375q-0.203125 -0.46875 -0.203125 -1.9375l0 -5.578125l-1.203125 0l0 -1.265625l1.203125 0l0 -2.390625l1.625 -0.984375l0 3.375l1.65625 0l0 1.265625l-1.65625 0l0 5.671875q0 0.6875 0.078125 0.890625q0.09375 0.203125 0.28125 0.328125q0.203125 0.109375 0.578125 0.109375q0.265625 0 0.71875 -0.0625zm0.9958191 -3.375q0 -2.6875 1.484375 -3.96875q1.25 -1.078125 3.046875 -1.078125q2.0 0 3.265625 1.3125q1.265625 1.296875 1.265625 3.609375q0 1.859375 -0.5625 2.9375q-0.5625 1.0625 -1.640625 1.65625q-1.0625 0.59375 -2.328125 0.59375q-2.03125 0 -3.28125 -1.296875q-1.25 -1.3125 -1.25 -3.765625zm1.6875 0q0 1.859375 0.796875 2.796875q0.8125 0.921875 2.046875 0.921875q1.21875 0 2.03125 -0.921875q0.8125 -0.9375 0.8125 -2.84375q0 -1.796875 -0.8125 -2.71875q-0.8125 -0.921875 -2.03125 -0.921875q-1.234375 0 -2.046875 0.921875q-0.796875 0.90625 -0.796875 2.765625zm9.281952 4.84375l0 -9.671875l1.46875 0l0 1.46875q0.5625 -1.03125 1.03125 -1.359375q0.484375 -0.328125 1.0625 -0.328125q0.828125 0 1.6875 0.53125l-0.5625 1.515625q-0.609375 -0.359375 -1.203125 -0.359375q-0.546875 0 -0.96875 0.328125q-0.421875 0.328125 -0.609375 0.890625q-0.28125 0.875 -0.28125 1.921875l0 5.0625l-1.625 0z" fill-rule="nonzero"/><path fill="#000000" d="m424.8308 395.07626q0 -2.6875 1.484375 -3.96875q1.25 -1.078125 3.046875 -1.078125q2.0 0 3.265625 1.3125q1.265625 1.296875 1.265625 3.609375q0 1.859375 -0.5625 2.9375q-0.5625 1.0625 -1.640625 1.65625q-1.0625 0.59375 -2.328125 0.59375q-2.03125 0 -3.28125 -1.296875q-1.25 -1.3125 -1.25 -3.765625zm1.6875 0q0 1.859375 0.796875 2.796875q0.8125 0.921875 2.046875 0.921875q1.21875 0 2.03125 -0.921875q0.8125 -0.9375 0.8125 -2.84375q0 -1.796875 -0.8125 -2.71875q-0.8125 -0.921875 -2.03125 -0.921875q-1.234375 0 -2.046875 0.921875q-0.796875 0.90625 -0.796875 2.765625zm9.281952 4.84375l0 -9.671875l1.46875 0l0 1.46875q0.5625 -1.03125 1.03125 -1.359375q0.484375 -0.328125 1.0625 -0.328125q0.828125 0 1.6875 0.53125l-0.5625 1.515625q-0.609375 -0.359375 -1.203125 -0.359375q-0.546875 0 -0.96875 0.328125q-0.421875 0.328125 -0.609375 0.890625q-0.28125 0.875 -0.28125 1.921875l0 5.0625l-1.625 0z" fill-rule="nonzero"/><path fill="#000000" d="m393.28168 421.92l0 -9.671875l1.46875 0l0 1.46875q0.5625 -1.03125 1.03125 -1.359375q0.484375 -0.328125 1.0625 -0.328125q0.828125 0 1.6875 0.53125l-0.5625 1.515625q-0.609375 -0.359375 -1.203125 -0.359375q-0.546875 0 -0.96875 0.328125q-0.421875 0.328125 -0.609375 0.890625q-0.28125 0.875 -0.28125 1.921875l0 5.0625l-1.625 0zm12.853302 -3.109375l1.6875 0.203125q-0.40625 1.484375 -1.484375 2.3125q-1.078125 0.8125 -2.765625 0.8125q-2.125 0 -3.375 -1.296875q-1.234375 -1.3125 -1.234375 -3.671875q0 -2.453125 1.25 -3.796875q1.265625 -1.34375 3.265625 -1.34375q1.9375 0 3.15625 1.328125q1.234375 1.3125 1.234375 3.703125q0 0.15625 0 0.4375l-7.21875 0q0.09375 1.59375 0.90625 2.453125q0.8125 0.84375 2.015625 0.84375q0.90625 0 1.546875 -0.46875q0.640625 -0.484375 1.015625 -1.515625zm-5.390625 -2.65625l5.40625 0q-0.109375 -1.21875 -0.625 -1.828125q-0.78125 -0.953125 -2.03125 -0.953125q-1.125 0 -1.90625 0.765625q-0.765625 0.75 -0.84375 2.015625zm15.453857 4.578125q-0.921875 0.765625 -1.765625 1.09375q-0.828125 0.3125 -1.796875 0.3125q-1.59375 0 -2.453125 -0.78125q-0.859375 -0.78125 -0.859375 -1.984375q0 -0.71875 0.328125 -1.296875q0.328125 -0.59375 0.84375 -0.9375q0.53125 -0.359375 1.1875 -0.546875q0.46875 -0.125 1.453125 -0.25q1.984375 -0.234375 2.921875 -0.5625q0.015625 -0.34375 0.015625 -0.421875q0 -1.0 -0.46875 -1.421875q-0.625 -0.546875 -1.875 -0.546875q-1.15625 0 -1.703125 0.40625q-0.546875 0.40625 -0.8125 1.421875l-1.609375 -0.21875q0.21875 -1.015625 0.71875 -1.640625q0.5 -0.640625 1.453125 -0.984375q0.953125 -0.34375 2.1875 -0.34375q1.25 0 2.015625 0.296875q0.78125 0.28125 1.140625 0.734375q0.375 0.4375 0.515625 1.109375q0.078125 0.421875 0.078125 1.515625l0 2.1875q0 2.28125 0.109375 2.890625q0.109375 0.59375 0.40625 1.15625l-1.703125 0q-0.265625 -0.515625 -0.328125 -1.1875zm-0.140625 -3.671875q-0.890625 0.375 -2.671875 0.625q-1.015625 0.140625 -1.4375 0.328125q-0.421875 0.1875 -0.65625 0.53125q-0.21875 0.34375 -0.21875 0.78125q0 0.65625 0.5 1.09375q0.5 0.4375 1.453125 0.4375q0.9375 0 1.671875 -0.40625q0.75 -0.421875 1.09375 -1.140625q0.265625 -0.5625 0.265625 -1.640625l0 -0.609375zm4.156952 4.859375l0 -13.359375l1.640625 0l0 13.359375l-1.640625 0zm11.15625 0l-2.96875 -9.671875l1.703125 0l1.53125 5.578125l0.578125 2.078125q0.046875 -0.15625 0.5 -2.0l1.546875 -5.65625l1.6875 0l1.4375 5.609375l0.484375 1.84375l0.5625 -1.859375l1.65625 -5.59375l1.59375 0l-3.03125 9.671875l-1.703125 0l-1.53125 -5.796875l-0.375 -1.640625l-1.953125 7.4375l-1.71875 0zm11.082336 -4.84375q0 -2.6875 1.484375 -3.96875q1.25 -1.078125 3.046875 -1.078125q2.0 0 3.265625 1.3125q1.265625 1.296875 1.265625 3.609375q0 1.859375 -0.5625 2.9375q-0.5625 1.0625 -1.640625 1.65625q-1.0625 0.59375 -2.328125 0.59375q-2.03125 0 -3.28125 -1.296875q-1.25 -1.3125 -1.25 -3.765625zm1.6875 0q0 1.859375 0.796875 2.796875q0.8125 0.921875 2.046875 0.921875q1.21875 0 2.03125 -0.921875q0.8125 -0.9375 0.8125 -2.84375q0 -1.796875 -0.8125 -2.71875q-0.8125 -0.921875 -2.03125 -0.921875q-1.234375 0 -2.046875 0.921875q-0.796875 0.90625 -0.796875 2.765625zm9.281952 4.84375l0 -9.671875l1.46875 0l0 1.46875q0.5625 -1.03125 1.03125 -1.359375q0.484375 -0.328125 1.0625 -0.328125q0.828125 0 1.6875 0.53125l-0.5625 1.515625q-0.609375 -0.359375 -1.203125 -0.359375q-0.546875 0 -0.96875 0.328125q-0.421875 0.328125 -0.609375 0.890625q-0.28125 0.875 -0.28125 1.921875l0 5.0625l-1.625 0zm6.181427 0l0 -13.359375l1.640625 0l0 13.359375l-1.640625 0zm10.457336 0l0 -1.21875q-0.90625 1.4375 -2.703125 1.4375q-1.15625 0 -2.125 -0.640625q-0.96875 -0.640625 -1.5 -1.78125q-0.53125 -1.140625 -0.53125 -2.625q0 -1.453125 0.484375 -2.625q0.484375 -1.1875 1.4375 -1.8125q0.96875 -0.625 2.171875 -0.625q0.875 0 1.546875 0.375q0.6875 0.359375 1.109375 0.953125l0 -4.796875l1.640625 0l0 13.359375l-1.53125 0zm-5.171875 -4.828125q0 1.859375 0.78125 2.78125q0.78125 0.921875 1.84375 0.921875q1.078125 0 1.828125 -0.875q0.75 -0.890625 0.75 -2.6875q0 -1.984375 -0.765625 -2.90625q-0.765625 -0.9375 -1.890625 -0.9375q-1.078125 0 -1.8125 0.890625q-0.734375 0.890625 -0.734375 2.8125z" fill-rule="nonzero"/><path fill="#000000" fill-opacity="0.0" d="m761.13104 308.34647c0 42.33069 -132.09448 84.66141 -264.18896 84.66141" fill-rule="evenodd"/><path stroke="#000000" stroke-width="1.0" stroke-linejoin="round" stroke-linecap="butt" d="m761.13104 308.34647c0 21.165344 -33.02362 42.33069 -82.55902 58.204712c-24.767761 7.9370117 -53.663452 14.551178 -84.62311 19.181091c-15.479797 2.314972 -31.475586 4.1338806 -47.72943 5.3740234c-8.126892 0.62008667 -16.318298 1.0954895 -24.541931 1.415863c-4.1118774 0.16018677 -8.2317505 0.2816162 -12.355652 0.3630066c-2.0619812 0.04067993 -4.1249695 0.071380615 -6.1884155 0.09185791l-0.19152832 0.0014343262" fill-rule="evenodd"/><path fill="#000000" stroke="#000000" stroke-width="1.0" stroke-linecap="butt" d="m502.93387 391.32675l-4.5299377 1.6739502l4.5461426 1.6294861z" fill-rule="evenodd"/><path fill="#000000" fill-opacity="0.0" d="m368.05905 393.0c-153.44882 0 -306.89764 -42.33072 -306.89764 -84.66141" fill-rule="evenodd"/><path stroke="#000000" stroke-width="1.0" stroke-linejoin="round" stroke-linecap="butt" d="m368.05905 393.0c-76.724396 0 -153.44882 -10.582672 -210.99213 -26.456696c-28.771652 -7.9370117 -52.748024 -17.196838 -69.531494 -27.118103c-8.391731 -4.9606323 -14.985237 -10.086609 -19.480804 -15.295288c-2.2477875 -2.604309 -3.9710846 -5.229309 -5.1324425 -7.8646545c-0.29034042 -0.658844 -0.5455589 -1.3183289 -0.76506805 -1.978302l-0.009563446 -0.029968262" fill-rule="evenodd"/><path fill="#000000" stroke="#000000" stroke-width="1.0" stroke-linecap="butt" d="m63.77682 313.9855l-2.3751335 -4.204895l-0.8834076 4.747864z" fill-rule="evenodd"/><path fill="#000000" fill-opacity="0.0" d="m162.43832 6.0183725l536.81885 0l0 213.95276l-536.81885 0z" fill-rule="evenodd"/><path stroke="#000000" stroke-width="1.0" stroke-linejoin="round" stroke-linecap="butt" stroke-dasharray="4.0,3.0" d="m162.43832 6.0183725l536.81885 0l0 213.95276l-536.81885 0z" fill-rule="evenodd"/><path fill="#000000" d="m417.8066 201.65675l0 -1.578125l5.65625 0l0 4.953125q-1.296875 1.046875 -2.6875 1.578125q-1.375 0.515625 -2.84375 0.515625q-1.96875 0 -3.578125 -0.84375q-1.609375 -0.84375 -2.421875 -2.4375q-0.8125 -1.59375 -0.8125 -3.5625q0 -1.953125 0.8125 -3.640625q0.8125 -1.6875 2.34375 -2.5q1.53125 -0.828125 3.515625 -0.828125q1.453125 0 2.625 0.46875q1.171875 0.46875 1.828125 1.3125q0.671875 0.828125 1.015625 2.171875l-1.59375 0.4375q-0.296875 -1.015625 -0.75 -1.59375q-0.4375 -0.59375 -1.265625 -0.9375q-0.828125 -0.34375 -1.84375 -0.34375q-1.203125 0 -2.09375 0.375q-0.890625 0.359375 -1.4375 0.96875q-0.53125 0.59375 -0.828125 1.3125q-0.515625 1.234375 -0.515625 2.6875q0 1.78125 0.609375 2.984375q0.625 1.203125 1.796875 1.796875q1.171875 0.578125 2.5 0.578125q1.140625 0 2.234375 -0.4375q1.09375 -0.453125 1.65625 -0.953125l0 -2.484375l-3.921875 0zm8.245789 5.234375l0 -13.359375l1.8125 0l7.015625 10.484375l0 -10.484375l1.6875 0l0 13.359375l-1.8125 0l-7.015625 -10.5l0 10.5l-1.6875 0zm23.019836 -4.6875l1.765625 0.453125q-0.5625 2.171875 -2.0 3.328125q-1.4375 1.140625 -3.53125 1.140625q-2.15625 0 -3.515625 -0.875q-1.34375 -0.890625 -2.0625 -2.546875q-0.703125 -1.671875 -0.703125 -3.59375q0 -2.078125 0.796875 -3.625q0.796875 -1.5625 2.265625 -2.359375q1.484375 -0.8125 3.25 -0.8125q2.0 0 3.359375 1.015625q1.375 1.015625 1.90625 2.875l-1.734375 0.40625q-0.46875 -1.453125 -1.359375 -2.109375q-0.875 -0.671875 -2.203125 -0.671875q-1.546875 0 -2.578125 0.734375q-1.03125 0.734375 -1.453125 1.984375q-0.421875 1.234375 -0.421875 2.5625q0 1.703125 0.5 2.96875q0.5 1.265625 1.546875 1.90625q1.046875 0.625 2.265625 0.625q1.484375 0 2.515625 -0.859375q1.03125 -0.859375 1.390625 -2.546875z" fill-rule="nonzero"/></g></svg>